<?xml version="1.0" encoding="utf-8"?>
<!-- Generator: Adobe Illustrator 16.0.0, SVG Export Plug-In . SVG Version: 6.00 Build 0)  -->
<!DOCTYPE svg PUBLIC "-//W3C//DTD SVG 1.1//EN" "http://www.w3.org/Graphics/SVG/1.1/DTD/svg11.dtd">
<svg version="1.1" id="Layer_1" xmlns="http://www.w3.org/2000/svg" xmlns:xlink="http://www.w3.org/1999/xlink" x="0px" y="0px"
	 width="346px" height="220.75px" viewBox="0 0 346 220.75" enable-background="new 0 0 346 220.75" xml:space="preserve">
<linearGradient id="SVGID_1_" gradientUnits="userSpaceOnUse" x1="-816.4531" y1="-136.3643" x2="-789.9746" y2="-136.3643" gradientTransform="matrix(-1 0 0 -1 -1059.4395 258.7979)">
	<stop  offset="0" style="stop-color:#3692CC"/>
	<stop  offset="1" style="stop-color:#74B9D7"/>
</linearGradient>
<polygon fill="url(#SVGID_1_)" points="-242.986,389.768 -269.465,406.275 -269.465,395.08 -252.547,384.049 "/>
<g>
	<path d="M-662.642-18.492c-1.098,0-1.922-0.291-2.472-0.872c-0.565-0.596-0.847-1.394-0.847-2.394v-7.276h-1.164v-0.872h1.164
		v-3.15h0.896v3.15h4.048v0.872h-4.048v7.368c0,0.711,0.194,1.268,0.582,1.671c0.42,0.421,0.97,0.63,1.648,0.63h1.818v0.872
		H-662.642z"/>
	<path d="M-651.01-18.492v-6.818c0-1.144-0.354-2.088-1.065-2.829c-0.696-0.741-1.559-1.112-2.594-1.112
		c-1.05,0-1.923,0.363-2.617,1.088c-0.694,0.741-1.042,1.692-1.042,2.853v6.818h-0.919v-12.31v-4.556h0.896v7.004
		c0.451-0.566,0.977-1.002,1.575-1.31c0.614-0.306,1.308-0.459,2.084-0.459c1.292,0,2.382,0.428,3.271,1.284
		c0.92,0.889,1.381,2.019,1.381,3.394v6.954H-651.01z"/>
	<path d="M-646.77-32.643c-0.146,0.145-0.322,0.218-0.533,0.218s-0.38-0.064-0.508-0.195c-0.146-0.144-0.218-0.322-0.218-0.532
		c0-0.194,0.072-0.355,0.218-0.485c0.112-0.145,0.282-0.218,0.508-0.218c0.178,0,0.347,0.064,0.509,0.193
		c0.146,0.13,0.218,0.3,0.218,0.509C-646.576-32.942-646.641-32.772-646.77-32.643z M-647.764-18.492v-11.413h0.97v11.413H-647.764z
		"/>
	<path d="M-636.156-18.492v-6.818c0-1.144-0.356-2.088-1.067-2.829c-0.694-0.741-1.559-1.112-2.592-1.112
		c-1.05,0-1.922,0.363-2.617,1.088c-0.695,0.741-1.042,1.692-1.042,2.853v6.818h-0.921v-6.954c0-1.39,0.436-2.513,1.309-3.369
		c0.873-0.873,1.954-1.308,3.247-1.308s2.383,0.428,3.272,1.284c0.92,0.889,1.381,2.019,1.381,3.394v6.954H-636.156z"/>
	<path d="M-625.932-27.385c-0.145,0.21-0.287,0.417-0.424,0.618c-0.137,0.202-0.27,0.408-0.399,0.619
		c-0.339,0.484-0.702,0.839-1.091,1.065c0.856,0.017,1.575,0.316,2.157,0.897c0.711,0.662,1.065,1.551,1.065,2.665v3.029h-0.969
		v-2.98c0-0.775-0.258-1.438-0.775-1.987c-0.533-0.534-1.236-0.8-2.108-0.8h-3.223v5.767h-0.921v-16.866h0.896v10.226h1.89
		c0.549,0,1.067-0.243,1.552-0.727c0.161-0.162,0.371-0.408,0.629-0.739c0.26-0.331,0.559-0.764,0.897-1.296l1.343-2.012h1.178
		L-625.932-27.385z"/>
	<path d="M-621.012-32.643c-0.146,0.145-0.322,0.218-0.533,0.218c-0.209,0-0.379-0.064-0.508-0.195
		c-0.146-0.144-0.219-0.322-0.219-0.532c0-0.194,0.072-0.355,0.219-0.485c0.111-0.145,0.281-0.218,0.508-0.218
		c0.178,0,0.348,0.064,0.509,0.193c0.146,0.13,0.218,0.3,0.218,0.509C-620.818-32.942-620.883-32.772-621.012-32.643z
		 M-622.005-18.492v-11.413h0.969v11.413H-622.005z"/>
	<path d="M-610.398-18.492v-6.818c0-1.144-0.355-2.088-1.066-2.829c-0.694-0.741-1.559-1.112-2.593-1.112
		c-1.05,0-1.923,0.363-2.616,1.088c-0.695,0.741-1.043,1.692-1.043,2.853v6.818h-0.92v-6.954c0-1.39,0.436-2.513,1.308-3.369
		c0.872-0.873,1.954-1.308,3.247-1.308s2.383,0.428,3.271,1.284c0.922,0.889,1.381,2.019,1.381,3.394v6.954H-610.398z"/>
	<path d="M-597.338-14.562c-1.082,0.999-2.463,1.498-4.143,1.498c-1.1,0-2.205-0.192-3.322-0.573l0.292-0.882
		c0.226,0.081,0.453,0.154,0.679,0.22c0.225,0.063,0.477,0.128,0.751,0.193c0.501,0.113,0.985,0.17,1.454,0.17
		c1.648,0,2.859-0.389,3.635-1.168c0.889-0.857,1.334-2.246,1.334-4.163v-1.381c-0.211,0.292-0.396,0.542-0.559,0.751
		c-0.16,0.21-0.348,0.42-0.557,0.63c-0.211,0.21-0.42,0.38-0.631,0.509c-0.518,0.291-1.033,0.448-1.551,0.472
		c-0.516,0.024-0.969,0.037-1.357,0.037c-1.566,0-2.883-0.566-3.949-1.697c-1.084-1.163-1.624-2.577-1.624-4.24
		c0-1.713,0.532-3.126,1.601-4.241c1.065-1.131,2.383-1.696,3.949-1.696s2.885,0.563,3.949,1.691c1.082,1.16,1.623,2.57,1.623,4.229
		v5.533C-595.764-16.93-596.287-15.56-597.338-14.562z M-596.658-24.174c0-1.354-0.43-2.53-1.285-3.53
		c-0.922-1.032-2.045-1.547-3.369-1.547c-1.228,0-2.301,0.484-3.222,1.45c-0.938,1.015-1.405,2.224-1.405,3.626
		c0,1.418,0.468,2.619,1.405,3.603c0.937,0.967,2.003,1.45,3.198,1.45c0.371,0,0.791-0.003,1.26-0.012
		c0.469-0.008,0.928-0.133,1.381-0.375c0.291-0.162,0.559-0.387,0.801-0.677s0.451-0.58,0.629-0.87
		c0.178-0.291,0.371-0.652,0.582-1.088L-596.658-24.174z"/>
	<path stroke="#000000" stroke-width="0.5896" stroke-miterlimit="10" d="M-651.007,13.022c-1.804,1.913-4.033,2.873-6.685,2.873
		c-2.653,0-4.88-0.96-6.687-2.873c-1.833-1.968-2.746-4.362-2.746-7.177c0-2.899,0.901-5.292,2.706-7.178
		c1.805-1.915,4.033-2.871,6.686-2.871c0.682,0,1.299,0.068,1.844,0.204c0.547,0.138,1.163,0.341,1.846,0.616
		c0.466,0.191,0.944,0.445,1.437,0.76c0.491,0.313,0.943,0.628,1.354,0.943c0.409,0.313,0.875,0.704,1.393,1.168v-12.55h1.559V5.845
		C-648.3,8.742-649.203,11.136-651.007,13.022z M-649.817,1.569c-0.575-0.6-1.082-1.098-1.52-1.493
		c-0.436-0.396-0.929-0.792-1.475-1.188c-0.548-0.395-1.082-0.702-1.6-0.92c-0.629-0.246-1.175-0.423-1.641-0.53
		c-0.464-0.111-1.011-0.165-1.64-0.165c-2.078,0-3.897,0.819-5.455,2.455c-1.587,1.718-2.38,3.764-2.38,6.138
		c0,2.399,0.793,4.433,2.38,6.097c1.586,1.637,3.389,2.454,5.414,2.454c2.296,0,4.182-0.844,5.659-2.536
		c1.477-1.665,2.215-3.668,2.215-6.015L-649.817,1.569z"/>
	<path stroke="#000000" stroke-width="0.5896" stroke-miterlimit="10" d="M-628.039,12.899c-1.889,1.998-4.197,2.996-6.934,2.996
		c-2.761,0-5.085-0.973-6.971-2.913c-1.888-1.969-2.831-4.347-2.831-7.136c0-2.762,0.942-5.127,2.831-7.096
		c1.885-1.97,4.196-2.953,6.932-2.953c2.762,0,5.084,0.983,6.973,2.953c1.913,1.996,2.869,4.36,2.869,7.096
		C-625.17,8.552-626.126,10.904-628.039,12.899z M-626.811,5.865c0-2.292-0.778-4.296-2.338-6.015
		c-1.559-1.72-3.498-2.578-5.824-2.578c-2.322,0-4.264,0.845-5.822,2.538c-1.587,1.746-2.379,3.763-2.379,6.055
		c0,2.266,0.779,4.256,2.337,5.974c1.559,1.718,3.499,2.577,5.825,2.577c2.35,0,4.293-0.844,5.824-2.536
		c1.559-1.665,2.338-3.668,2.338-6.015H-626.811z"/>
	<path stroke="#000000" stroke-width="0.5896" stroke-miterlimit="10" d="M-621.561,23.193c-1.203,0.984-2.65,1.478-4.346,1.478
		h-0.901v-1.478h0.901c1.313,0,2.406-0.382,3.279-1.147c1.066-0.904,1.602-2.173,1.602-3.814V-3.958h1.641v22.599
		C-619.385,20.582-620.109,22.101-621.561,23.193z M-619.345-8.468c-0.245,0.245-0.546,0.368-0.9,0.368
		c-0.356,0-0.644-0.108-0.862-0.329c-0.248-0.245-0.368-0.545-0.368-0.901c0-0.329,0.108-0.602,0.325-0.82
		c0.248-0.246,0.549-0.369,0.905-0.369c0.299,0,0.586,0.108,0.86,0.328c0.245,0.22,0.369,0.507,0.369,0.862
		C-619.016-8.975-619.127-8.688-619.345-8.468z"/>
	<path stroke="#000000" stroke-width="0.5896" stroke-miterlimit="10" d="M-598.635,12.899c-1.887,1.998-4.196,2.996-6.93,2.996
		c-2.764,0-5.088-0.973-6.973-2.913c-1.889-1.969-2.83-4.347-2.83-7.136c0-2.762,0.941-5.127,2.83-7.096
		c1.885-1.97,4.194-2.953,6.93-2.953c2.764,0,5.086,0.983,6.973,2.953c1.916,1.996,2.871,4.36,2.871,7.096
		C-595.764,8.552-596.719,10.904-598.635,12.899z M-597.404,5.865c0-2.292-0.777-4.296-2.338-6.015
		c-1.559-1.72-3.5-2.578-5.822-2.578c-2.325,0-4.266,0.845-5.824,2.538c-1.587,1.746-2.38,3.763-2.38,6.055
		c0,2.266,0.779,4.256,2.339,5.974c1.557,1.718,3.498,2.577,5.822,2.577c2.354,0,4.293-0.844,5.824-2.536
		c1.561-1.665,2.34-3.668,2.34-6.015H-597.404z"/>
</g>
<linearGradient id="SVGID_2_" gradientUnits="userSpaceOnUse" x1="-694.1079" y1="-6.8765" x2="-672.0728" y2="-6.8765">
	<stop  offset="0" style="stop-color:#3692CC"/>
	<stop  offset="1" style="stop-color:#74B9D7"/>
</linearGradient>
<polygon fill="url(#SVGID_2_)" points="-694.108,-2.388 -672.073,-16.126 -672.073,-6.809 -686.151,2.373 "/>
<linearGradient id="SVGID_3_" gradientUnits="userSpaceOnUse" x1="-694.1079" y1="8.46" x2="-656.0096" y2="8.46">
	<stop  offset="0" style="stop-color:#74B9D7"/>
	<stop  offset="1" style="stop-color:#3692CC"/>
</linearGradient>
<polygon fill="url(#SVGID_3_)" points="-672.073,9.718 -672.073,19.308 -694.108,6.726 -694.108,-2.388 "/>
<linearGradient id="SVGID_4_" gradientUnits="userSpaceOnUse" x1="-387.3672" y1="272.4209" x2="-365.332" y2="272.4209" gradientTransform="matrix(-1 0 0 -1 -1059.4395 258.7979)">
	<stop  offset="0" style="stop-color:#3692CC"/>
	<stop  offset="1" style="stop-color:#74B9D7"/>
</linearGradient>
<polygon fill="url(#SVGID_4_)" points="-672.073,-18.112 -694.108,-4.374 -694.108,-13.691 -680.03,-22.873 "/>
<linearGradient id="SVGID_5_" gradientUnits="userSpaceOnUse" x1="-387.3672" y1="287.7578" x2="-349.2689" y2="287.7578" gradientTransform="matrix(-1 0 0 -1 -1059.4395 258.7979)">
	<stop  offset="0" style="stop-color:#74B9D7"/>
	<stop  offset="1" style="stop-color:#3692CC"/>
</linearGradient>
<polygon fill="url(#SVGID_5_)" points="-694.108,-30.218 -694.108,-39.808 -672.073,-27.226 -672.073,-18.112 "/>
<linearGradient id="SVGID_6_" gradientUnits="userSpaceOnUse" x1="-683.6909" y1="396.0537" x2="-664.6743" y2="396.0537">
	<stop  offset="0" style="stop-color:#3692CC"/>
	<stop  offset="1" style="stop-color:#74B9D7"/>
</linearGradient>
<polygon fill="url(#SVGID_6_)" points="-683.691,399.927 -664.674,388.071 -664.674,396.112 -676.824,404.036 "/>
<linearGradient id="SVGID_7_" gradientUnits="userSpaceOnUse" x1="-683.6909" y1="409.2891" x2="-650.8116" y2="409.2891">
	<stop  offset="0" style="stop-color:#74B9D7"/>
	<stop  offset="1" style="stop-color:#3692CC"/>
</linearGradient>
<polygon fill="url(#SVGID_7_)" points="-664.674,410.375 -664.674,418.65 -683.691,407.792 -683.691,399.927 "/>
<linearGradient id="SVGID_8_" gradientUnits="userSpaceOnUse" x1="-411.4512" y1="-141.2148" x2="-392.4336" y2="-141.2148" gradientTransform="matrix(-1 0 0 -1 -1059.4395 258.7979)">
	<stop  offset="0" style="stop-color:#3692CC"/>
	<stop  offset="1" style="stop-color:#74B9D7"/>
</linearGradient>
<polygon fill="url(#SVGID_8_)" points="-647.989,396.138 -667.005,407.995 -667.005,399.954 -654.856,392.03 "/>
<linearGradient id="SVGID_9_" gradientUnits="userSpaceOnUse" x1="-411.4512" y1="-127.9785" x2="-378.5702" y2="-127.9785" gradientTransform="matrix(-1 0 0 -1 -1059.4395 258.7979)">
	<stop  offset="0" style="stop-color:#74B9D7"/>
	<stop  offset="1" style="stop-color:#3692CC"/>
</linearGradient>
<polygon fill="url(#SVGID_9_)" points="-667.005,385.69 -667.005,377.415 -647.989,388.273 -647.989,396.138 "/>
<g>
	<path d="M-637.465,396.749h-2.926v3.014c0,0.807,0.286,1.492,0.857,2.057c0.572,0.564,1.262,0.848,2.068,0.848v2.97
		c-1.628,0-3.018-0.571-4.169-1.716s-1.728-2.53-1.728-4.158v-11.55h2.971v6.006h2.926V396.749z"/>
	<path d="M-633,405.637h-2.971v-17.401H-633v6.731c0.909-0.499,1.884-0.748,2.926-0.748c1.628,0,3.018,0.571,4.169,1.713
		s1.727,2.525,1.727,4.149v5.556h-2.97v-5.565c0-0.793-0.287-1.475-0.861-2.047s-1.259-0.857-2.054-0.857
		c-0.81,0-1.502,0.282-2.076,0.847c-0.573,0.565-0.86,1.251-0.86,2.058V405.637z"/>
	<path d="M-622.968,391.688c0-0.498,0.172-0.916,0.517-1.254c0.345-0.337,0.767-0.506,1.266-0.506c0.483,0,0.898,0.172,1.243,0.518
		c0.344,0.344,0.517,0.758,0.517,1.242c0,0.499-0.169,0.921-0.506,1.266c-0.338,0.344-0.756,0.517-1.254,0.517
		c-0.499,0-0.921-0.173-1.266-0.517C-622.796,392.609-622.968,392.188-622.968,391.688z M-622.661,394.219h2.971v11.418h-2.971
		V394.219z"/>
	<path d="M-614.341,398.014c-0.573,0.565-0.86,1.251-0.86,2.058v5.565h-2.971v-5.565c0-1.629,0.576-3.015,1.728-4.158
		c1.151-1.145,2.541-1.717,4.169-1.717s3.018,0.572,4.169,1.717c1.151,1.144,1.727,2.529,1.727,4.158v5.565h-2.97v-5.565
		c0-0.793-0.287-1.475-0.861-2.047s-1.259-0.857-2.054-0.857C-613.075,397.167-613.767,397.449-614.341,398.014z"/>
	<path d="M-601.892,405.637h-2.971v-17.401h2.971v10.075h1.861c0.803,0,1.481-0.283,2.036-0.851c0.555-0.568,0.84-1.266,0.854-2.091
		v-1.15h3.014v1.144c0,1.76-0.66,3.227-1.979,4.4c1.319,1.174,1.979,2.641,1.979,4.4v1.474h-3.014v-1.474
		c-0.015-0.822-0.296-1.511-0.844-2.068c-0.547-0.557-1.229-0.836-2.047-0.836h-1.861V405.637z"/>
	<path d="M-592.917,391.688c0-0.498,0.172-0.916,0.517-1.254c0.345-0.337,0.767-0.506,1.266-0.506c0.483,0,0.898,0.172,1.243,0.518
		c0.344,0.344,0.517,0.758,0.517,1.242c0,0.499-0.169,0.921-0.506,1.266c-0.338,0.344-0.756,0.517-1.254,0.517
		c-0.499,0-0.921-0.173-1.266-0.517C-592.745,392.609-592.917,392.188-592.917,391.688z M-592.609,394.219h2.971v11.418h-2.971
		V394.219z"/>
	<path d="M-584.29,398.014c-0.573,0.565-0.86,1.251-0.86,2.058v5.565h-2.971v-5.565c0-1.629,0.576-3.015,1.728-4.158
		c1.151-1.145,2.541-1.717,4.169-1.717s3.018,0.572,4.169,1.717c1.151,1.144,1.727,2.529,1.727,4.158v5.565h-2.97v-5.565
		c0-0.793-0.287-1.475-0.861-2.047s-1.259-0.857-2.054-0.857C-583.023,397.167-583.715,397.449-584.29,398.014z"/>
	<path d="M-563.019,400.069c0,1.673-0.608,3.08-1.825,4.225c1.217,1.159,1.825,2.582,1.825,4.269c0,2.112-0.865,3.74-2.596,4.884
		c-1.012,0.66-2.104,0.99-3.278,0.99c-2.097,0-3.726-0.873-4.884-2.617c-0.675-0.998-1.012-2.084-1.012-3.257
		c0-0.763,0.146-1.495,0.44-2.2l2.75,1.105c-0.147,0.354-0.221,0.721-0.221,1.104c0,0.81,0.29,1.499,0.869,2.065
		c0.579,0.567,1.265,0.852,2.057,0.852s1.475-0.289,2.047-0.865c0.571-0.576,0.857-1.264,0.857-2.063
		c0-1.301-0.607-2.209-1.821-2.727c-0.366,0.088-0.731,0.132-1.098,0.132c-1.639,0-3.028-0.572-4.169-1.716
		c-1.142-1.145-1.712-2.537-1.712-4.18c0-1.629,0.573-3.015,1.721-4.158c1.146-1.145,2.531-1.717,4.153-1.717l1.716-4.069
		l2.35,0.997l-1.561,3.644c1.034,0.499,1.858,1.226,2.471,2.179C-563.326,397.899-563.019,398.94-563.019,400.069z
		 M-565.989,400.081c0-0.794-0.286-1.479-0.857-2.053c-0.572-0.574-1.255-0.861-2.047-0.861c-0.807,0-1.495,0.283-2.067,0.85
		c-0.572,0.567-0.858,1.256-0.858,2.064c0,0.811,0.286,1.502,0.858,2.076s1.261,0.861,2.067,0.861s1.492-0.287,2.058-0.861
		C-566.271,401.583-565.989,400.892-565.989,400.081z"/>
	<path d="M-633.022,417.272c0,1.625-0.572,3.014-1.716,4.163c-1.145,1.15-2.53,1.726-4.158,1.726c-1.643,0-3.036-0.571-4.18-1.713
		c-1.145-1.143-1.717-2.533-1.717-4.173c0-1.624,0.576-3.008,1.728-4.149c1.151-1.143,2.541-1.713,4.169-1.713
		c1.041,0,2.009,0.249,2.904,0.748v-6.732h2.97V417.272z M-635.992,417.275c0-0.794-0.286-1.479-0.858-2.054
		s-1.254-0.861-2.046-0.861c-0.807,0-1.496,0.283-2.068,0.851c-0.571,0.567-0.857,1.255-0.857,2.064s0.286,1.502,0.857,2.076
		c0.572,0.573,1.262,0.86,2.068,0.86s1.492-0.287,2.057-0.86C-636.275,418.777-635.992,418.085-635.992,417.275z"/>
	<path d="M-621.45,413.106c1.144,1.145,1.716,2.53,1.716,4.158s-0.572,3.018-1.716,4.169c-1.145,1.151-2.53,1.728-4.158,1.728
		c-1.643,0-3.036-0.572-4.18-1.717c-1.145-1.144-1.717-2.537-1.717-4.18c0-1.628,0.576-3.014,1.728-4.158s2.541-1.716,4.169-1.716
		S-622.594,411.962-621.45,413.106z M-623.562,415.219c-0.572-0.572-1.254-0.858-2.046-0.858c-0.807,0-1.496,0.283-2.068,0.848
		c-0.571,0.564-0.857,1.25-0.857,2.057s0.286,1.496,0.857,2.068c0.572,0.572,1.262,0.857,2.068,0.857s1.492-0.285,2.057-0.857
		s0.848-1.262,0.848-2.068C-622.704,416.473-622.99,415.79-623.562,415.219z"/>
	<path d="M-615.203,422.94c0,1.643-0.568,3.032-1.705,4.169s-2.526,1.705-4.169,1.705v-2.97c0.807,0,1.492-0.283,2.058-0.848
		c0.564-0.564,0.847-1.25,0.847-2.057v-11.527h2.97V422.94z M-614.938,408.882c0,0.5-0.169,0.922-0.507,1.266
		c-0.337,0.345-0.755,0.518-1.254,0.518c-0.498,0-0.92-0.173-1.265-0.518c-0.345-0.344-0.517-0.766-0.517-1.266
		c0-0.498,0.172-0.916,0.517-1.254c0.345-0.336,0.767-0.506,1.265-0.506c0.484,0,0.898,0.173,1.243,0.518
		S-614.938,408.398-614.938,408.882z"/>
	<path d="M-603.652,413.106c1.144,1.145,1.716,2.53,1.716,4.158s-0.572,3.018-1.716,4.169c-1.145,1.151-2.53,1.728-4.158,1.728
		c-1.643,0-3.036-0.572-4.18-1.717c-1.145-1.144-1.717-2.537-1.717-4.18c0-1.628,0.576-3.014,1.728-4.158s2.541-1.716,4.169-1.716
		S-604.796,411.962-603.652,413.106z M-605.764,415.219c-0.572-0.572-1.254-0.858-2.046-0.858c-0.807,0-1.496,0.283-2.068,0.848
		c-0.571,0.564-0.857,1.25-0.857,2.057s0.286,1.496,0.857,2.068c0.572,0.572,1.262,0.857,2.068,0.857s1.492-0.285,2.057-0.857
		s0.848-1.262,0.848-2.068C-604.906,416.473-605.192,415.79-605.764,415.219z"/>
</g>
<path d="M-486.271-16.334c-1.098,0-1.922-0.291-2.472-0.872c-0.565-0.596-0.847-1.394-0.847-2.394v-7.276h-1.164v-0.872h1.164v-3.15
	h0.896v3.15h4.048v0.872h-4.048v7.368c0,0.711,0.194,1.268,0.582,1.671c0.42,0.421,0.97,0.63,1.648,0.63h1.818v0.872H-486.271z"/>
<path d="M-474.64-16.334v-6.818c0-1.144-0.354-2.088-1.065-2.829c-0.696-0.741-1.559-1.112-2.594-1.112
	c-1.05,0-1.923,0.363-2.617,1.088c-0.694,0.741-1.042,1.692-1.042,2.853v6.818h-0.919v-12.31V-33.2h0.896v7.004
	c0.451-0.566,0.977-1.002,1.575-1.31c0.614-0.306,1.308-0.459,2.084-0.459c1.292,0,2.382,0.428,3.271,1.284
	c0.92,0.889,1.381,2.019,1.381,3.394v6.954H-474.64z"/>
<path d="M-470.399-30.485c-0.146,0.145-0.322,0.218-0.533,0.218s-0.38-0.064-0.508-0.195c-0.146-0.144-0.218-0.322-0.218-0.532
	c0-0.194,0.072-0.355,0.218-0.485c0.112-0.145,0.282-0.218,0.508-0.218c0.178,0,0.347,0.064,0.509,0.193
	c0.146,0.13,0.218,0.3,0.218,0.509C-470.205-30.784-470.271-30.615-470.399-30.485z M-471.393-16.334v-11.413h0.97v11.413H-471.393z
	"/>
<path d="M-459.786-16.334v-6.818c0-1.144-0.356-2.088-1.067-2.829c-0.694-0.741-1.559-1.112-2.592-1.112
	c-1.05,0-1.922,0.363-2.617,1.088c-0.695,0.741-1.042,1.692-1.042,2.853v6.818h-0.921v-6.954c0-1.39,0.436-2.513,1.309-3.369
	c0.873-0.873,1.954-1.308,3.247-1.308s2.383,0.428,3.272,1.284c0.92,0.889,1.381,2.019,1.381,3.394v6.954H-459.786z"/>
<path d="M-449.561-25.228c-0.145,0.21-0.287,0.417-0.424,0.618c-0.137,0.202-0.27,0.408-0.399,0.619
	c-0.339,0.484-0.702,0.839-1.091,1.065c0.856,0.017,1.575,0.316,2.157,0.897c0.711,0.662,1.065,1.551,1.065,2.665v3.029h-0.969
	v-2.98c0-0.775-0.258-1.438-0.775-1.987c-0.533-0.534-1.236-0.8-2.108-0.8h-3.223v5.767h-0.921V-33.2h0.896v10.226h1.89
	c0.549,0,1.067-0.243,1.552-0.727c0.161-0.162,0.371-0.408,0.629-0.739c0.26-0.331,0.559-0.764,0.897-1.296l1.343-2.012h1.178
	L-449.561-25.228z"/>
<path d="M-444.641-30.485c-0.146,0.145-0.322,0.218-0.533,0.218c-0.209,0-0.379-0.064-0.508-0.195
	c-0.146-0.144-0.219-0.322-0.219-0.532c0-0.194,0.072-0.355,0.219-0.485c0.111-0.145,0.282-0.218,0.508-0.218
	c0.178,0,0.348,0.064,0.508,0.193c0.146,0.13,0.219,0.3,0.219,0.509C-444.447-30.784-444.512-30.615-444.641-30.485z
	 M-445.634-16.334v-11.413h0.968v11.413H-445.634z"/>
<path d="M-434.027-16.334v-6.818c0-1.144-0.355-2.088-1.066-2.829c-0.695-0.741-1.559-1.112-2.594-1.112
	c-1.049,0-1.922,0.363-2.615,1.088c-0.695,0.741-1.043,1.692-1.043,2.853v6.818h-0.92v-6.954c0-1.39,0.436-2.513,1.307-3.369
	c0.873-0.873,1.955-1.308,3.248-1.308s2.383,0.428,3.271,1.284c0.922,0.889,1.381,2.019,1.381,3.394v6.954H-434.027z"/>
<path d="M-420.967-12.404c-1.082,0.999-2.463,1.498-4.143,1.498c-1.1,0-2.205-0.192-3.322-0.573l0.291-0.882
	c0.227,0.081,0.453,0.154,0.68,0.22c0.225,0.063,0.477,0.128,0.75,0.193c0.502,0.113,0.986,0.17,1.455,0.17
	c1.648,0,2.859-0.389,3.635-1.168c0.889-0.857,1.334-2.246,1.334-4.163v-1.381c-0.211,0.292-0.396,0.542-0.559,0.751
	c-0.16,0.21-0.348,0.42-0.557,0.63c-0.211,0.21-0.42,0.38-0.631,0.509c-0.518,0.291-1.033,0.448-1.551,0.472
	c-0.516,0.024-0.969,0.037-1.357,0.037c-1.566,0-2.883-0.566-3.949-1.697c-1.084-1.163-1.625-2.577-1.625-4.24
	c0-1.713,0.533-3.126,1.602-4.241c1.064-1.131,2.383-1.696,3.949-1.696s2.885,0.563,3.949,1.691c1.082,1.16,1.623,2.57,1.623,4.229
	v5.533C-419.393-14.772-419.916-13.402-420.967-12.404z M-420.287-22.017c0-1.354-0.43-2.53-1.285-3.53
	c-0.922-1.032-2.045-1.547-3.369-1.547c-1.229,0-2.301,0.484-3.223,1.45c-0.938,1.015-1.404,2.224-1.404,3.626
	c0,1.418,0.467,2.619,1.404,3.603c0.938,0.967,2.004,1.45,3.199,1.45c0.371,0,0.791-0.003,1.26-0.012
	c0.469-0.008,0.928-0.133,1.381-0.375c0.291-0.162,0.559-0.387,0.801-0.677s0.451-0.58,0.629-0.87
	c0.178-0.291,0.371-0.652,0.582-1.088L-420.287-22.017z"/>
<path stroke="#000000" stroke-width="0.5896" stroke-miterlimit="10" d="M-474.637,16.18c-1.804,1.913-4.033,2.873-6.685,2.873
	c-2.653,0-4.88-0.96-6.687-2.873c-1.833-1.968-2.746-4.362-2.746-7.177c0-2.899,0.901-5.292,2.706-7.178
	c1.805-1.915,4.033-2.871,6.686-2.871c0.682,0,1.299,0.068,1.844,0.204c0.547,0.138,1.163,0.341,1.846,0.616
	c0.466,0.191,0.944,0.445,1.437,0.76c0.491,0.313,0.943,0.628,1.354,0.943c0.409,0.313,0.875,0.704,1.393,1.168v-12.55h1.559V9.003
	C-471.93,11.899-472.832,14.293-474.637,16.18z M-473.446,4.727c-0.575-0.6-1.082-1.098-1.52-1.493
	c-0.436-0.396-0.929-0.792-1.475-1.188c-0.548-0.395-1.082-0.702-1.6-0.92c-0.629-0.246-1.175-0.423-1.641-0.53
	c-0.464-0.111-1.011-0.165-1.64-0.165c-2.078,0-3.897,0.819-5.455,2.455c-1.587,1.718-2.38,3.764-2.38,6.138
	c0,2.399,0.793,4.433,2.38,6.097c1.586,1.637,3.389,2.454,5.414,2.454c2.296,0,4.182-0.844,5.659-2.536
	c1.477-1.665,2.215-3.668,2.215-6.015L-473.446,4.727z"/>
<path stroke="#000000" stroke-width="0.5896" stroke-miterlimit="10" d="M-451.668,16.057c-1.889,1.998-4.197,2.996-6.934,2.996
	c-2.761,0-5.085-0.973-6.971-2.913c-1.888-1.969-2.831-4.347-2.831-7.136c0-2.762,0.942-5.127,2.831-7.096
	c1.885-1.97,4.196-2.953,6.932-2.953c2.762,0,5.084,0.983,6.973,2.953c1.913,1.996,2.869,4.36,2.869,7.096
	C-448.799,11.71-449.755,14.062-451.668,16.057z M-450.44,9.023c0-2.292-0.778-4.296-2.338-6.015
	c-1.559-1.72-3.498-2.578-5.824-2.578c-2.322,0-4.264,0.845-5.822,2.538c-1.587,1.746-2.379,3.763-2.379,6.055
	c0,2.266,0.779,4.256,2.337,5.974c1.559,1.718,3.499,2.577,5.825,2.577c2.35,0,4.293-0.844,5.824-2.536
	c1.559-1.665,2.338-3.668,2.338-6.015H-450.44z"/>
<path stroke="#000000" stroke-width="0.5896" stroke-miterlimit="10" d="M-445.189,26.351c-1.204,0.984-2.651,1.478-4.346,1.478
	h-0.901v-1.478h0.901c1.313,0,2.406-0.382,3.279-1.147c1.067-0.904,1.602-2.173,1.602-3.814V-0.8h1.641v22.599
	C-443.014,23.74-443.738,25.258-445.189,26.351z M-442.975-5.311c-0.244,0.245-0.545,0.368-0.9,0.368s-0.643-0.108-0.861-0.329
	c-0.248-0.245-0.369-0.545-0.369-0.901c0-0.329,0.109-0.602,0.326-0.82c0.248-0.246,0.549-0.369,0.904-0.369
	c0.299,0,0.586,0.108,0.861,0.328c0.244,0.22,0.369,0.507,0.369,0.862C-442.645-5.817-442.756-5.53-442.975-5.311z"/>
<path stroke="#000000" stroke-width="0.5896" stroke-miterlimit="10" d="M-422.264,16.057c-1.887,1.998-4.197,2.996-6.93,2.996
	c-2.764,0-5.088-0.973-6.973-2.913c-1.889-1.969-2.83-4.347-2.83-7.136c0-2.762,0.941-5.127,2.83-7.096
	c1.885-1.97,4.193-2.953,6.93-2.953c2.764,0,5.086,0.983,6.973,2.953c1.916,1.996,2.871,4.36,2.871,7.096
	C-419.393,11.71-420.348,14.062-422.264,16.057z M-421.033,9.023c0-2.292-0.777-4.296-2.338-6.015
	c-1.559-1.72-3.5-2.578-5.822-2.578c-2.326,0-4.266,0.845-5.824,2.538c-1.588,1.746-2.381,3.763-2.381,6.055
	c0,2.266,0.779,4.256,2.34,5.974c1.557,1.718,3.498,2.577,5.822,2.577c2.354,0,4.293-0.844,5.824-2.536
	c1.561-1.665,2.34-3.668,2.34-6.015H-421.033z"/>
<linearGradient id="SVGID_10_" gradientUnits="userSpaceOnUse" x1="-537.4795" y1="-9.8887" x2="-513.9717" y2="-9.8887">
	<stop  offset="0" style="stop-color:#3692CC"/>
	<stop  offset="1" style="stop-color:#74B9D7"/>
</linearGradient>
<polygon fill="url(#SVGID_10_)" points="-537.479,-5.1 -513.972,-19.756 -513.972,-9.817 -528.991,-0.021 "/>
<linearGradient id="SVGID_11_" gradientUnits="userSpaceOnUse" x1="-537.4795" y1="6.4727" x2="-496.835" y2="6.4727">
	<stop  offset="0" style="stop-color:#74B9D7"/>
	<stop  offset="1" style="stop-color:#3692CC"/>
</linearGradient>
<polygon fill="url(#SVGID_11_)" points="-513.972,7.815 -513.972,18.045 -537.479,4.622 -537.479,-5.1 "/>
<linearGradient id="SVGID_12_" gradientUnits="userSpaceOnUse" x1="-564.9526" y1="264.1445" x2="-541.4448" y2="264.1445" gradientTransform="matrix(-1 0 0 -1 -1059.4395 258.7979)">
	<stop  offset="0" style="stop-color:#3692CC"/>
	<stop  offset="1" style="stop-color:#74B9D7"/>
</linearGradient>
<polygon fill="url(#SVGID_12_)" points="-494.487,-10.136 -517.995,4.521 -517.995,-5.419 -502.976,-15.214 "/>
<linearGradient id="SVGID_13_" gradientUnits="userSpaceOnUse" x1="-564.9526" y1="280.5063" x2="-524.3081" y2="280.5063" gradientTransform="matrix(-1 0 0 -1 -1059.4395 258.7979)">
	<stop  offset="0" style="stop-color:#74B9D7"/>
	<stop  offset="1" style="stop-color:#3692CC"/>
</linearGradient>
<polygon fill="url(#SVGID_13_)" points="-517.995,-23.05 -517.995,-33.281 -494.487,-19.858 -494.487,-10.136 "/>
<linearGradient id="SVGID_14_" gradientUnits="userSpaceOnUse" x1="-516.8848" y1="402.2422" x2="-497.8682" y2="402.2422">
	<stop  offset="0" style="stop-color:#3692CC"/>
	<stop  offset="1" style="stop-color:#74B9D7"/>
</linearGradient>
<polygon fill="url(#SVGID_14_)" points="-516.885,406.115 -497.868,394.26 -497.868,402.301 -510.018,410.225 "/>
<linearGradient id="SVGID_15_" gradientUnits="userSpaceOnUse" x1="-516.8848" y1="415.4766" x2="-484.0054" y2="415.4766">
	<stop  offset="0" style="stop-color:#74B9D7"/>
	<stop  offset="1" style="stop-color:#3692CC"/>
</linearGradient>
<polygon fill="url(#SVGID_15_)" points="-497.868,416.563 -497.868,424.838 -516.885,413.98 -516.885,406.115 "/>
<linearGradient id="SVGID_16_" gradientUnits="userSpaceOnUse" x1="-584.2568" y1="-147.4033" x2="-565.2402" y2="-147.4033" gradientTransform="matrix(-1 0 0 -1 -1059.4395 258.7979)">
	<stop  offset="0" style="stop-color:#3692CC"/>
	<stop  offset="1" style="stop-color:#74B9D7"/>
</linearGradient>
<polygon fill="url(#SVGID_16_)" points="-475.183,402.326 -494.199,414.184 -494.199,406.143 -482.05,398.219 "/>
<linearGradient id="SVGID_17_" gradientUnits="userSpaceOnUse" x1="-584.2568" y1="-134.167" x2="-551.3775" y2="-134.167" gradientTransform="matrix(-1 0 0 -1 -1059.4395 258.7979)">
	<stop  offset="0" style="stop-color:#74B9D7"/>
	<stop  offset="1" style="stop-color:#3692CC"/>
</linearGradient>
<polygon fill="url(#SVGID_17_)" points="-494.199,391.879 -494.199,383.604 -475.183,394.461 -475.183,402.326 "/>
<g>
	<path d="M-464.659,395.938h-2.926v3.014c0,0.807,0.286,1.492,0.857,2.057c0.572,0.564,1.262,0.848,2.068,0.848v2.969
		c-1.628,0-3.018-0.57-4.169-1.715s-1.728-2.531-1.728-4.158V387.4h2.971v6.006h2.926V395.938z"/>
	<path d="M-460.193,404.824h-2.971v-17.4h2.971v6.73c0.909-0.498,1.884-0.748,2.926-0.748c1.628,0,3.018,0.572,4.169,1.713
		c1.151,1.143,1.727,2.525,1.727,4.15v5.555h-2.97v-5.564c0-0.793-0.287-1.475-0.861-2.047s-1.259-0.857-2.054-0.857
		c-0.81,0-1.502,0.281-2.076,0.846c-0.573,0.566-0.86,1.252-0.86,2.059V404.824z"/>
	<path d="M-450.162,390.877c0-0.498,0.172-0.916,0.517-1.254s0.767-0.506,1.266-0.506c0.483,0,0.898,0.172,1.243,0.518
		c0.344,0.344,0.517,0.758,0.517,1.242c0,0.498-0.169,0.92-0.506,1.266c-0.338,0.344-0.756,0.516-1.254,0.516
		c-0.499,0-0.921-0.172-1.266-0.516C-449.99,391.797-450.162,391.375-450.162,390.877z M-449.854,393.406h2.971v11.418h-2.971
		V393.406z"/>
	<path d="M-441.535,397.201c-0.573,0.566-0.86,1.252-0.86,2.059v5.564h-2.971v-5.564c0-1.629,0.576-3.016,1.728-4.158
		c1.151-1.145,2.541-1.717,4.17-1.717c1.627,0,3.018,0.572,4.168,1.717c1.152,1.143,1.727,2.529,1.727,4.158v5.564h-2.969v-5.564
		c0-0.793-0.287-1.475-0.861-2.047s-1.26-0.857-2.055-0.857C-440.268,396.355-440.961,396.637-441.535,397.201z"/>
	<path d="M-429.086,404.824h-2.971v-17.4h2.971v10.074h1.861c0.803,0,1.48-0.283,2.035-0.85c0.555-0.568,0.84-1.266,0.855-2.092
		v-1.15h3.014v1.145c0,1.76-0.66,3.227-1.98,4.4c1.32,1.174,1.98,2.641,1.98,4.4v1.473h-3.014v-1.473
		c-0.016-0.822-0.297-1.512-0.844-2.068s-1.23-0.836-2.047-0.836h-1.861V404.824z"/>
	<path d="M-420.111,390.877c0-0.498,0.172-0.916,0.518-1.254c0.344-0.338,0.766-0.506,1.266-0.506c0.482,0,0.898,0.172,1.242,0.518
		c0.344,0.344,0.518,0.758,0.518,1.242c0,0.498-0.17,0.92-0.506,1.266c-0.338,0.344-0.756,0.516-1.254,0.516
		c-0.5,0-0.922-0.172-1.266-0.516C-419.939,391.797-420.111,391.375-420.111,390.877z M-419.803,393.406h2.971v11.418h-2.971
		V393.406z"/>
	<path d="M-411.484,397.201c-0.572,0.566-0.859,1.252-0.859,2.059v5.564h-2.971v-5.564c0-1.629,0.576-3.016,1.727-4.158
		c1.152-1.145,2.541-1.717,4.17-1.717c1.627,0,3.018,0.572,4.168,1.717c1.152,1.143,1.727,2.529,1.727,4.158v5.564h-2.969v-5.564
		c0-0.793-0.287-1.475-0.861-2.047s-1.26-0.857-2.055-0.857C-410.217,396.355-410.91,396.637-411.484,397.201z"/>
	<path d="M-390.213,399.258c0,1.672-0.609,3.08-1.826,4.225c1.217,1.158,1.826,2.582,1.826,4.268c0,2.113-0.865,3.74-2.596,4.885
		c-1.012,0.66-2.105,0.99-3.279,0.99c-2.096,0-3.725-0.873-4.883-2.617c-0.676-0.998-1.012-2.084-1.012-3.258
		c0-0.762,0.146-1.494,0.439-2.199l2.75,1.105c-0.146,0.354-0.221,0.721-0.221,1.104c0,0.811,0.291,1.5,0.869,2.066
		c0.58,0.566,1.266,0.852,2.057,0.852c0.793,0,1.475-0.289,2.047-0.865s0.857-1.264,0.857-2.063c0-1.301-0.607-2.209-1.82-2.727
		c-0.367,0.088-0.732,0.131-1.098,0.131c-1.639,0-3.029-0.572-4.17-1.715c-1.141-1.145-1.711-2.537-1.711-4.18
		c0-1.629,0.572-3.016,1.721-4.158c1.146-1.145,2.531-1.717,4.152-1.717l1.717-4.07l2.35,0.998l-1.561,3.643
		c1.033,0.5,1.857,1.227,2.471,2.18S-390.213,398.129-390.213,399.258z M-393.184,399.27c0-0.795-0.285-1.479-0.857-2.053
		s-1.254-0.861-2.047-0.861c-0.807,0-1.494,0.283-2.066,0.85s-0.859,1.256-0.859,2.064c0,0.811,0.287,1.502,0.859,2.076
		s1.26,0.861,2.066,0.861s1.492-0.287,2.059-0.861C-393.465,400.771-393.184,400.08-393.184,399.27z"/>
	<path d="M-460.216,416.461c0,1.625-0.572,3.014-1.716,4.162c-1.145,1.15-2.53,1.727-4.158,1.727c-1.643,0-3.036-0.572-4.18-1.713
		c-1.145-1.143-1.717-2.533-1.717-4.174c0-1.623,0.576-3.008,1.728-4.148c1.151-1.143,2.541-1.713,4.169-1.713
		c1.041,0,2.009,0.248,2.904,0.748v-6.732h2.97V416.461z M-463.186,416.463c0-0.793-0.286-1.479-0.858-2.053
		s-1.254-0.861-2.046-0.861c-0.807,0-1.496,0.283-2.068,0.85c-0.571,0.568-0.857,1.256-0.857,2.064c0,0.811,0.286,1.502,0.857,2.076
		c0.572,0.574,1.262,0.861,2.068,0.861s1.492-0.287,2.057-0.861S-463.186,417.273-463.186,416.463z"/>
	<path d="M-448.644,412.295c1.144,1.145,1.716,2.529,1.716,4.158c0,1.627-0.572,3.018-1.716,4.168
		c-1.145,1.152-2.53,1.729-4.158,1.729c-1.643,0-3.036-0.572-4.18-1.717c-1.145-1.145-1.717-2.537-1.717-4.18
		c0-1.629,0.576-3.014,1.728-4.158s2.541-1.717,4.169-1.717S-449.788,411.15-448.644,412.295z M-450.756,414.406
		c-0.572-0.572-1.254-0.857-2.046-0.857c-0.807,0-1.496,0.283-2.068,0.848c-0.571,0.564-0.857,1.25-0.857,2.057
		s0.286,1.496,0.857,2.068c0.572,0.572,1.262,0.857,2.068,0.857s1.492-0.285,2.057-0.857s0.848-1.262,0.848-2.068
		C-449.897,415.66-450.184,414.979-450.756,414.406z"/>
	<path d="M-442.396,422.129c0,1.643-0.568,3.031-1.705,4.168s-2.526,1.705-4.169,1.705v-2.969c0.807,0,1.492-0.283,2.058-0.848
		c0.564-0.564,0.847-1.25,0.847-2.057v-11.527h2.97V422.129z M-442.132,408.07c0,0.5-0.169,0.922-0.507,1.266
		c-0.337,0.344-0.755,0.518-1.254,0.518c-0.498,0-0.92-0.174-1.265-0.518s-0.517-0.766-0.517-1.266c0-0.498,0.172-0.916,0.517-1.254
		c0.345-0.336,0.767-0.506,1.265-0.506c0.484,0,0.898,0.172,1.243,0.518C-442.305,407.172-442.132,407.586-442.132,408.07z"/>
	<path d="M-430.846,412.295c1.143,1.145,1.715,2.529,1.715,4.158c0,1.627-0.572,3.018-1.715,4.168
		c-1.145,1.152-2.529,1.729-4.158,1.729c-1.643,0-3.035-0.572-4.18-1.717s-1.717-2.537-1.717-4.18c0-1.629,0.576-3.014,1.729-4.158
		c1.15-1.145,2.541-1.717,4.168-1.717C-433.375,410.578-431.99,411.15-430.846,412.295z M-432.957,414.406
		c-0.572-0.572-1.254-0.857-2.047-0.857c-0.807,0-1.496,0.283-2.068,0.848c-0.57,0.564-0.857,1.25-0.857,2.057
		s0.287,1.496,0.857,2.068c0.572,0.572,1.262,0.857,2.068,0.857s1.492-0.285,2.057-0.857s0.848-1.262,0.848-2.068
		C-432.1,415.66-432.385,414.979-432.957,414.406z"/>
</g>
<path d="M-315.398-12.586c-0.856,0-1.499-0.227-1.929-0.681c-0.439-0.465-0.661-1.088-0.661-1.868v-5.679h-0.908v-0.68h0.908v-2.459
	h0.698v2.459h3.16v0.68h-3.16v5.751c0,0.555,0.152,0.989,0.456,1.305c0.326,0.328,0.754,0.491,1.285,0.491h1.419v0.681H-315.398z"/>
<path d="M-305.925-12.586v-5.321c0-0.893-0.276-1.629-0.83-2.208c-0.543-0.578-1.218-0.868-2.025-0.868
	c-0.818,0-1.501,0.283-2.042,0.849c-0.543,0.579-0.813,1.321-0.813,2.227v5.321h-0.718v-9.608v-3.555h0.699v5.467
	c0.353-0.442,0.763-0.782,1.229-1.022c0.479-0.239,1.021-0.359,1.627-0.359c1.008,0,1.859,0.334,2.555,1.002
	c0.718,0.694,1.077,1.576,1.077,2.648v5.427H-305.925z"/>
<path d="M-302.406-23.631c-0.114,0.113-0.252,0.17-0.417,0.17c-0.163,0-0.296-0.05-0.396-0.152c-0.113-0.113-0.17-0.252-0.17-0.416
	c0-0.151,0.057-0.277,0.17-0.378c0.088-0.112,0.221-0.17,0.396-0.17c0.14,0,0.272,0.051,0.396,0.151
	c0.115,0.102,0.172,0.234,0.172,0.397C-302.255-23.865-302.306-23.732-302.406-23.631z M-303.182-12.586v-8.908h0.755v8.908
	H-303.182z"/>
<path d="M-294.047-12.586v-5.321c0-0.893-0.279-1.629-0.834-2.208c-0.541-0.578-1.216-0.868-2.023-0.868
	c-0.819,0-1.501,0.283-2.042,0.849c-0.543,0.579-0.814,1.321-0.814,2.227v5.321h-0.718v-5.427c0-1.084,0.34-1.961,1.021-2.63
	c0.681-0.68,1.525-1.021,2.534-1.021s1.859,0.334,2.555,1.002c0.718,0.694,1.076,1.576,1.076,2.648v5.427H-294.047z"/>
<path d="M-286.295-19.528c-0.112,0.165-0.224,0.326-0.33,0.482c-0.107,0.158-0.212,0.319-0.313,0.483
	c-0.265,0.378-0.549,0.654-0.85,0.831c0.667,0.013,1.229,0.247,1.681,0.701c0.557,0.516,0.834,1.21,0.834,2.08v2.364h-0.757v-2.327
	c0-0.605-0.2-1.121-0.604-1.55c-0.417-0.417-0.965-0.625-1.647-0.625h-2.516v4.501h-0.718V-25.75h0.7v7.981h1.475
	c0.428,0,0.834-0.189,1.211-0.567c0.125-0.126,0.29-0.317,0.49-0.577c0.204-0.258,0.437-0.596,0.701-1.011l1.048-1.57h0.919
	L-286.295-19.528z"/>
<path d="M-282.211-23.631c-0.113,0.113-0.251,0.17-0.415,0.17s-0.296-0.05-0.396-0.152c-0.115-0.113-0.172-0.252-0.172-0.416
	c0-0.151,0.057-0.277,0.172-0.378c0.085-0.112,0.219-0.17,0.396-0.17c0.139,0,0.271,0.051,0.396,0.151
	c0.113,0.102,0.169,0.234,0.169,0.397C-282.061-23.865-282.109-23.732-282.211-23.631z M-282.986-12.586v-8.908h0.757v8.908
	H-282.986z"/>
<path d="M-273.854-12.586v-5.321c0-0.893-0.277-1.629-0.831-2.208c-0.543-0.578-1.217-0.868-2.025-0.868
	c-0.818,0-1.499,0.283-2.041,0.849c-0.542,0.579-0.814,1.321-0.814,2.227v5.321h-0.718v-5.427c0-1.084,0.34-1.961,1.021-2.63
	c0.682-0.68,1.525-1.021,2.534-1.021c1.01,0,1.86,0.334,2.555,1.002c0.718,0.694,1.078,1.576,1.078,2.648v5.427H-273.854z"/>
<path d="M-263.865-9.519c-0.845,0.779-1.923,1.169-3.233,1.169c-0.859,0-1.722-0.149-2.595-0.446l0.229-0.689
	c0.177,0.063,0.353,0.119,0.53,0.171c0.175,0.05,0.373,0.1,0.585,0.15c0.392,0.089,0.77,0.133,1.136,0.133
	c1.287,0,2.231-0.304,2.837-0.912c0.693-0.668,1.042-1.753,1.042-3.249v-1.079c-0.165,0.228-0.311,0.422-0.437,0.586
	c-0.125,0.164-0.271,0.328-0.436,0.492c-0.163,0.164-0.327,0.296-0.492,0.397c-0.403,0.227-0.806,0.35-1.21,0.369
	c-0.402,0.019-0.756,0.028-1.06,0.028c-1.222,0-2.249-0.442-3.082-1.324c-0.846-0.907-1.269-2.011-1.269-3.309
	c0-1.337,0.417-2.44,1.25-3.31c0.831-0.883,1.861-1.325,3.082-1.325c1.223,0,2.252,0.439,3.083,1.32
	c0.845,0.905,1.267,2.006,1.267,3.301v4.319C-262.638-11.367-263.046-10.299-263.865-9.519z M-263.335-17.021
	c0-1.057-0.337-1.975-1.004-2.754c-0.719-0.805-1.596-1.208-2.63-1.208c-0.959,0-1.795,0.378-2.516,1.132
	c-0.729,0.792-1.094,1.736-1.094,2.83c0,1.107,0.364,2.044,1.094,2.812c0.732,0.754,1.565,1.132,2.497,1.132
	c0.29,0,0.617-0.003,0.983-0.01c0.367-0.006,0.726-0.104,1.079-0.292c0.226-0.126,0.437-0.302,0.624-0.529
	c0.188-0.227,0.353-0.453,0.49-0.679c0.139-0.227,0.29-0.509,0.454-0.85L-263.335-17.021z"/>
<path stroke="#000000" stroke-width="0.5896" stroke-miterlimit="10" d="M-314.802,15.92c-1.69,1.793-3.779,2.693-6.265,2.693
	c-2.486,0-4.574-0.9-6.269-2.693c-1.717-1.844-2.573-4.088-2.573-6.726c0-2.717,0.846-4.96,2.537-6.728
	c1.691-1.794,3.78-2.69,6.267-2.69c0.639,0,1.218,0.063,1.728,0.191c0.514,0.13,1.092,0.319,1.73,0.577
	c0.437,0.179,0.886,0.417,1.347,0.712c0.461,0.294,0.885,0.589,1.27,0.884c0.382,0.293,0.819,0.66,1.305,1.095V-8.528h1.461V9.194
	C-312.265,11.909-313.11,14.153-314.802,15.92z M-313.686,5.187c-0.538-0.563-1.015-1.029-1.425-1.399
	c-0.409-0.372-0.871-0.742-1.382-1.113c-0.514-0.371-1.015-0.658-1.5-0.862c-0.589-0.23-1.101-0.396-1.539-0.497
	c-0.435-0.104-0.947-0.155-1.535-0.155c-1.947,0-3.652,0.768-5.113,2.3c-1.486,1.61-2.229,3.527-2.229,5.752
	c0,2.249,0.743,4.155,2.229,5.714c1.487,1.535,3.177,2.301,5.075,2.301c2.151,0,3.919-0.791,5.303-2.377
	c1.385-1.56,2.076-3.438,2.076-5.638L-313.686,5.187z"/>
<path stroke="#000000" stroke-width="0.5896" stroke-miterlimit="10" d="M-293.274,15.806c-1.77,1.872-3.935,2.808-6.499,2.808
	c-2.586,0-4.766-0.912-6.533-2.73c-1.769-1.845-2.652-4.075-2.652-6.688c0-2.588,0.884-4.805,2.652-6.65
	c1.768-1.847,3.934-2.768,6.497-2.768c2.588,0,4.766,0.921,6.535,2.768c1.794,1.87,2.689,4.087,2.689,6.65
	C-290.585,11.731-291.48,13.936-293.274,15.806z M-292.123,9.213c0-2.147-0.729-4.026-2.191-5.637
	c-1.461-1.612-3.278-2.416-5.459-2.416c-2.176,0-3.996,0.792-5.456,2.378c-1.488,1.637-2.23,3.527-2.23,5.675
	c0,2.124,0.73,3.989,2.192,5.6c1.46,1.61,3.278,2.416,5.458,2.416c2.202,0,4.023-0.791,5.458-2.377
	c1.462-1.56,2.192-3.438,2.192-5.638H-292.123z"/>
<path stroke="#000000" stroke-width="0.5896" stroke-miterlimit="10" d="M-287.201,25.454c-1.129,0.923-2.485,1.385-4.074,1.385
	h-0.844v-1.385h0.844c1.23,0,2.256-0.358,3.074-1.076c1-0.847,1.501-2.037,1.501-3.575V0.006h1.538v21.181
	C-285.162,23.006-285.842,24.43-287.201,25.454z M-285.126-4.221c-0.228,0.229-0.51,0.345-0.844,0.345
	c-0.333,0-0.602-0.101-0.807-0.309c-0.233-0.229-0.347-0.511-0.347-0.845c0-0.308,0.103-0.563,0.306-0.768
	c0.233-0.231,0.515-0.346,0.848-0.346c0.28,0,0.549,0.101,0.808,0.307c0.229,0.206,0.346,0.476,0.346,0.808
	C-284.816-4.696-284.92-4.427-285.126-4.221z"/>
<path stroke="#000000" stroke-width="0.5896" stroke-miterlimit="10" d="M-265.714,15.806c-1.769,1.872-3.935,2.808-6.495,2.808
	c-2.591,0-4.769-0.912-6.535-2.73c-1.771-1.845-2.652-4.075-2.652-6.688c0-2.588,0.882-4.805,2.652-6.65
	c1.767-1.847,3.93-2.768,6.495-2.768c2.59,0,4.767,0.921,6.535,2.768c1.796,1.87,2.69,4.087,2.69,6.65
	C-263.023,11.731-263.918,13.936-265.714,15.806z M-264.561,9.213c0-2.147-0.729-4.026-2.191-5.637
	c-1.461-1.612-3.28-2.416-5.457-2.416c-2.181,0-3.998,0.792-5.459,2.378c-1.487,1.637-2.231,3.527-2.231,5.675
	c0,2.124,0.73,3.989,2.193,5.6c1.459,1.61,3.278,2.416,5.457,2.416c2.205,0,4.023-0.791,5.459-2.377
	c1.463-1.56,2.193-3.438,2.193-5.638H-264.561z"/>
<linearGradient id="SVGID_18_" gradientUnits="userSpaceOnUse" x1="-374.0801" y1="-19" x2="-342.0859" y2="-19">
	<stop  offset="0" style="stop-color:#3692CC"/>
	<stop  offset="1" style="stop-color:#74B9D7"/>
</linearGradient>
<polygon fill="url(#SVGID_18_)" points="-374.08,-12.482 -342.086,-32.43 -342.086,-18.902 -362.525,-5.571 "/>
<linearGradient id="SVGID_19_" gradientUnits="userSpaceOnUse" x1="-729.2803" y1="264.5449" x2="-697.2881" y2="264.5449" gradientTransform="matrix(-1 0 0 -1 -1059.4395 258.7979)">
	<stop  offset="0" style="stop-color:#3692CC"/>
	<stop  offset="1" style="stop-color:#74B9D7"/>
</linearGradient>
<polygon fill="url(#SVGID_19_)" points="-330.159,-12.266 -362.151,7.683 -362.151,-5.845 -341.711,-19.176 "/>
<linearGradient id="SVGID_20_" gradientUnits="userSpaceOnUse" x1="-729.2803" y1="286.8135" x2="-673.9664" y2="286.8135" gradientTransform="matrix(-1 0 0 -1 -1059.4395 258.7979)">
	<stop  offset="0" style="stop-color:#74B9D7"/>
	<stop  offset="1" style="stop-color:#3692CC"/>
</linearGradient>
<polygon fill="url(#SVGID_20_)" points="-362.151,-29.841 -362.151,-43.765 -330.159,-25.497 -330.159,-12.266 "/>
<linearGradient id="SVGID_21_" gradientUnits="userSpaceOnUse" x1="-303.7441" y1="374.875" x2="-277.2656" y2="374.875">
	<stop  offset="0" style="stop-color:#3692CC"/>
	<stop  offset="1" style="stop-color:#74B9D7"/>
</linearGradient>
<polygon fill="url(#SVGID_21_)" points="-303.744,380.268 -277.266,363.761 -277.266,374.957 -294.182,385.988 "/>
<linearGradient id="SVGID_22_" gradientUnits="userSpaceOnUse" x1="-303.7441" y1="393.3018" x2="-257.9633" y2="393.3018">
	<stop  offset="0" style="stop-color:#74B9D7"/>
	<stop  offset="1" style="stop-color:#3692CC"/>
</linearGradient>
<polygon fill="url(#SVGID_22_)" points="-277.266,394.814 -277.266,406.336 -303.744,391.219 -303.744,380.268 "/>
<linearGradient id="SVGID_23_" gradientUnits="userSpaceOnUse" x1="-816.4531" y1="-117.9355" x2="-770.6723" y2="-117.9355" gradientTransform="matrix(-1 0 0 -1 -1059.4395 258.7979)">
	<stop  offset="0" style="stop-color:#74B9D7"/>
	<stop  offset="1" style="stop-color:#3692CC"/>
</linearGradient>
<polygon fill="url(#SVGID_23_)" points="-269.465,375.221 -269.465,363.699 -242.986,378.817 -242.986,389.768 "/>
<path d="M-306.543,419.728h-2.926v3.014c0,0.807,0.285,1.492,0.857,2.057s1.262,0.848,2.068,0.848v2.97
	c-1.629,0-3.018-0.571-4.17-1.716c-1.15-1.145-1.727-2.53-1.727-4.158v-11.55h2.971v6.006h2.926V419.728z"/>
<path d="M-302.078,428.615h-2.971v-17.401h2.971v6.731c0.91-0.499,1.885-0.748,2.926-0.748c1.629,0,3.018,0.571,4.17,1.713
	c1.15,1.142,1.727,2.525,1.727,4.149v5.556h-2.971v-5.565c0-0.793-0.287-1.475-0.861-2.047s-1.258-0.857-2.053-0.857
	c-0.811,0-1.502,0.282-2.076,0.847c-0.574,0.565-0.861,1.251-0.861,2.058V428.615z"/>
<path d="M-292.047,414.667c0-0.498,0.172-0.916,0.518-1.254c0.344-0.337,0.766-0.506,1.266-0.506c0.482,0,0.898,0.172,1.242,0.518
	c0.344,0.344,0.518,0.758,0.518,1.242c0,0.499-0.17,0.921-0.506,1.266c-0.338,0.344-0.756,0.517-1.254,0.517
	c-0.5,0-0.922-0.173-1.266-0.517C-291.875,415.588-292.047,415.166-292.047,414.667z M-291.738,417.197h2.971v11.418h-2.971V417.197
	z"/>
<path d="M-283.42,420.992c-0.572,0.565-0.859,1.251-0.859,2.058v5.565h-2.971v-5.565c0-1.629,0.576-3.015,1.727-4.158
	c1.152-1.145,2.541-1.717,4.17-1.717c1.627,0,3.018,0.572,4.168,1.717c1.152,1.144,1.727,2.529,1.727,4.158v5.565h-2.969v-5.565
	c0-0.793-0.287-1.475-0.861-2.047s-1.26-0.857-2.055-0.857C-282.152,420.146-282.846,420.428-283.42,420.992z"/>
<path d="M-270.971,428.615h-2.971v-17.401h2.971v10.075h2.861c0.803,0,1.48-0.283,2.035-0.851c0.555-0.568,0.84-1.266,0.855-2.091
	v-1.15h3.014v1.144c0,1.76-0.66,3.227-1.98,4.4c1.32,1.174,1.98,2.641,1.98,4.4v1.474h-3.014v-1.474
	c-0.016-0.822-0.297-1.511-0.844-2.068c-0.547-0.557-1.23-0.836-2.047-0.836h-2.861V428.615z"/>
<path d="M-260.996,414.667c0-0.498,0.172-0.916,0.518-1.254c0.344-0.337,0.766-0.506,1.266-0.506c0.482,0,0.898,0.172,1.242,0.518
	c0.344,0.344,0.518,0.758,0.518,1.242c0,0.499-0.17,0.921-0.506,1.266c-0.338,0.344-0.756,0.517-1.254,0.517
	c-0.5,0-0.922-0.173-1.266-0.517C-260.824,415.588-260.996,415.166-260.996,414.667z M-260.688,417.197h2.971v11.418h-2.971V417.197
	z"/>
<path d="M-252.369,420.992c-0.572,0.565-0.859,1.251-0.859,2.058v5.565h-2.971v-5.565c0-1.629,0.576-3.015,1.727-4.158
	c1.152-1.145,2.541-1.717,4.17-1.717c1.627,0,3.018,0.572,4.168,1.717c1.152,1.144,1.727,2.529,1.727,4.158v5.565h-2.969v-5.565
	c0-0.793-0.287-1.475-0.861-2.047s-1.26-0.857-2.055-0.857C-251.102,420.146-251.795,420.428-252.369,420.992z"/>
<path d="M-231.098,423.048c0,1.673-0.609,3.08-1.826,4.225c1.217,1.159,1.826,2.582,1.826,4.269c0,2.112-0.865,3.74-2.596,4.884
	c-1.012,0.66-2.105,0.99-3.279,0.99c-2.096,0-3.725-0.873-4.883-2.617c-0.676-0.998-1.012-2.084-1.012-3.257
	c0-0.763,0.146-1.495,0.439-2.2l2.75,1.105c-0.146,0.354-0.221,0.721-0.221,1.104c0,0.81,0.291,1.499,0.869,2.065
	c0.58,0.567,1.266,0.852,2.057,0.852c0.793,0,1.475-0.289,2.047-0.865s0.857-1.264,0.857-2.063c0-1.301-0.607-2.209-1.82-2.727
	c-0.367,0.088-0.732,0.132-1.098,0.132c-1.639,0-3.029-0.572-4.17-1.716c-1.141-1.145-1.711-2.537-1.711-4.18
	c0-1.629,0.572-3.015,1.721-4.158c1.146-1.145,2.531-1.717,4.152-1.717l1.717-4.069l2.35,0.997l-1.561,3.644
	c1.033,0.499,1.857,1.226,2.471,2.179S-231.098,421.919-231.098,423.048z M-234.068,423.06c0-0.794-0.285-1.479-0.857-2.053
	s-1.254-0.861-2.047-0.861c-0.807,0-1.494,0.283-2.066,0.85c-0.572,0.567-0.859,1.256-0.859,2.064c0,0.811,0.287,1.502,0.859,2.076
	s1.26,0.861,2.066,0.861s1.492-0.287,2.059-0.861C-234.35,424.562-234.068,423.87-234.068,423.06z"/>
<path d="M-275.48,440.405c0,1.625-0.572,3.014-1.715,4.163c-1.145,1.15-2.531,1.726-4.158,1.726c-1.643,0-3.037-0.571-4.18-1.713
	c-1.145-1.143-1.717-2.533-1.717-4.173c0-1.624,0.576-3.008,1.727-4.149c1.152-1.143,2.541-1.713,4.17-1.713
	c1.041,0,2.008,0.249,2.904,0.748v-6.732h2.969V440.405z M-278.449,440.408c0-0.794-0.287-1.479-0.859-2.054
	s-1.254-0.861-2.045-0.861c-0.807,0-1.496,0.283-2.068,0.851s-0.857,1.255-0.857,2.064s0.285,1.502,0.857,2.076
	c0.572,0.573,1.262,0.86,2.068,0.86s1.492-0.287,2.057-0.86C-278.732,441.91-278.449,441.218-278.449,440.408z"/>
<path d="M-263.908,436.239c1.143,1.145,1.715,2.53,1.715,4.158s-0.572,3.018-1.715,4.169c-1.145,1.151-2.531,1.728-4.158,1.728
	c-1.643,0-3.035-0.572-4.18-1.717c-1.145-1.144-1.717-2.537-1.717-4.18c0-1.628,0.576-3.014,1.729-4.158
	c1.15-1.145,2.539-1.716,4.168-1.716C-266.439,434.523-265.053,435.095-263.908,436.239z M-266.021,438.352
	c-0.572-0.572-1.254-0.858-2.045-0.858c-0.807,0-1.496,0.283-2.068,0.848c-0.57,0.564-0.857,1.25-0.857,2.057
	s0.287,1.496,0.857,2.068c0.572,0.572,1.262,0.857,2.068,0.857s1.492-0.285,2.057-0.857s0.848-1.262,0.848-2.068
	C-265.162,439.605-265.449,438.923-266.021,438.352z"/>
<path d="M-257.662,446.073c0,1.643-0.568,3.032-1.705,4.169s-2.525,1.705-4.168,1.705v-2.97c0.807,0,1.492-0.283,2.057-0.848
	s0.848-1.25,0.848-2.057v-11.527h2.969V446.073z M-257.396,432.015c0,0.5-0.17,0.922-0.508,1.266
	c-0.336,0.345-0.754,0.518-1.254,0.518c-0.498,0-0.92-0.173-1.264-0.518c-0.346-0.344-0.518-0.766-0.518-1.266
	c0-0.498,0.172-0.916,0.518-1.254c0.344-0.336,0.766-0.506,1.264-0.506c0.484,0,0.898,0.173,1.244,0.518
	C-257.57,431.117-257.396,431.531-257.396,432.015z"/>
<path d="M-246.111,436.239c1.145,1.145,1.717,2.53,1.717,4.158s-0.572,3.018-1.717,4.169s-2.529,1.728-4.158,1.728
	c-1.643,0-3.035-0.572-4.18-1.717c-1.145-1.144-1.717-2.537-1.717-4.18c0-1.628,0.576-3.014,1.729-4.158
	c1.15-1.145,2.541-1.716,4.168-1.716C-248.641,434.523-247.256,435.095-246.111,436.239z M-248.223,438.352
	c-0.572-0.572-1.254-0.858-2.047-0.858c-0.807,0-1.496,0.283-2.068,0.848c-0.57,0.564-0.857,1.25-0.857,2.057
	s0.287,1.496,0.857,2.068c0.572,0.572,1.262,0.857,2.068,0.857s1.492-0.285,2.057-0.857s0.848-1.262,0.848-2.068
	C-247.365,439.605-247.65,438.923-248.223,438.352z"/>
<linearGradient id="SVGID_24_" gradientUnits="userSpaceOnUse" x1="-374.0801" y1="3.2676" x2="-318.7628" y2="3.2676">
	<stop  offset="0" style="stop-color:#74B9D7"/>
	<stop  offset="1" style="stop-color:#3692CC"/>
</linearGradient>
<polygon fill="url(#SVGID_24_)" points="-342.086,5.094 -342.086,19.017 -374.08,0.749 -374.08,-12.482 "/>
<path d="M-606.041,111.31c-0.833,0-1.458-0.22-1.875-0.662c-0.428-0.452-0.643-1.057-0.643-1.816v-5.52h-0.882v-0.661h0.882v-2.39
	h0.68v2.39h3.071v0.661h-3.071v5.59c0,0.539,0.147,0.961,0.442,1.268c0.318,0.319,0.734,0.478,1.25,0.478h1.379v0.662H-606.041z"/>
<path d="M-597.218,111.31v-5.172c0-0.868-0.269-1.584-0.807-2.146c-0.528-0.563-1.184-0.844-1.968-0.844
	c-0.796,0-1.458,0.275-1.986,0.826c-0.526,0.563-0.79,1.284-0.79,2.165v5.172h-0.698v-9.339v-3.456h0.68v5.313
	c0.343-0.429,0.741-0.76,1.195-0.994c0.466-0.232,0.992-0.349,1.581-0.349c0.98,0,1.808,0.325,2.482,0.974
	c0.698,0.674,1.048,1.532,1.048,2.574v5.275H-597.218z"/>
<path d="M-594,100.574c-0.111,0.11-0.245,0.166-0.405,0.166s-0.288-0.049-0.385-0.147c-0.111-0.109-0.166-0.245-0.166-0.404
	c0-0.147,0.055-0.27,0.166-0.368c0.085-0.11,0.213-0.166,0.385-0.166c0.136,0,0.264,0.049,0.386,0.147
	c0.111,0.098,0.167,0.227,0.167,0.386C-593.853,100.348-593.903,100.476-594,100.574z M-594.754,111.31v-8.658h0.735v8.658H-594.754
	z"/>
<path d="M-585.949,111.31v-5.172c0-0.868-0.271-1.584-0.81-2.146c-0.526-0.563-1.183-0.844-1.967-0.844
	c-0.797,0-1.458,0.275-1.984,0.826c-0.528,0.563-0.792,1.284-0.792,2.165v5.172h-0.698v-5.275c0-1.054,0.331-1.906,0.994-2.556
	c0.661-0.662,1.482-0.993,2.462-0.993c0.981,0,1.809,0.325,2.483,0.974c0.698,0.674,1.047,1.532,1.047,2.574v5.275H-585.949z"/>
<path d="M-578.192,104.563c-0.109,0.16-0.218,0.316-0.321,0.469c-0.104,0.153-0.205,0.31-0.304,0.47
	c-0.257,0.367-0.532,0.636-0.826,0.808c0.649,0.013,1.194,0.24,1.636,0.681c0.54,0.502,0.809,1.176,0.809,2.021v2.298h-0.735v-2.261
	c0-0.588-0.195-1.091-0.588-1.507c-0.405-0.405-0.938-0.607-1.6-0.607h-2.445v4.375h-0.699V98.515h0.681v7.757h1.433
	c0.416,0,0.81-0.184,1.177-0.551c0.123-0.122,0.281-0.309,0.477-0.561c0.198-0.25,0.424-0.579,0.681-0.983l1.02-1.526h0.893
	L-578.192,104.563z"/>
<path d="M-574.459,100.574c-0.111,0.11-0.245,0.166-0.404,0.166c-0.159,0-0.289-0.049-0.386-0.147
	c-0.111-0.109-0.167-0.245-0.167-0.404c0-0.147,0.056-0.27,0.167-0.368c0.083-0.11,0.214-0.166,0.386-0.166
	c0.134,0,0.264,0.049,0.384,0.147c0.111,0.098,0.166,0.227,0.166,0.386C-574.313,100.348-574.362,100.476-574.459,100.574z
	 M-575.213,111.31v-8.658h0.734v8.658H-575.213z"/>
<path d="M-566.408,111.31v-5.172c0-0.868-0.27-1.584-0.808-2.146c-0.528-0.563-1.183-0.844-1.968-0.844
	c-0.796,0-1.458,0.275-1.984,0.826c-0.528,0.563-0.792,1.284-0.792,2.165v5.172h-0.698v-5.275c0-1.054,0.331-1.906,0.991-2.556
	c0.664-0.662,1.484-0.993,2.464-0.993c0.981,0,1.808,0.325,2.482,0.974c0.699,0.674,1.048,1.532,1.048,2.574v5.275H-566.408z"/>
<path d="M-556.5,114.292c-0.821,0.758-1.868,1.136-3.143,1.136c-0.834,0-1.673-0.146-2.521-0.434l0.222-0.669
	c0.172,0.061,0.344,0.116,0.516,0.167c0.17,0.048,0.362,0.098,0.568,0.146c0.381,0.086,0.749,0.129,1.104,0.129
	c1.25,0,2.169-0.295,2.757-0.886c0.674-0.65,1.012-1.704,1.012-3.158v-1.048c-0.161,0.221-0.301,0.411-0.423,0.57
	c-0.122,0.159-0.264,0.319-0.423,0.478c-0.161,0.159-0.319,0.289-0.479,0.386c-0.393,0.221-0.784,0.34-1.177,0.358
	c-0.391,0.018-0.734,0.028-1.03,0.028c-1.188,0-2.186-0.43-2.995-1.287c-0.823-0.882-1.233-1.956-1.233-3.217
	c0-1.3,0.405-2.372,1.215-3.217c0.808-0.858,1.808-1.287,2.996-1.287c1.188,0,2.188,0.427,2.996,1.283
	c0.82,0.88,1.231,1.95,1.231,3.209v4.197C-555.306,112.495-555.703,113.534-556.5,114.292z M-555.984,106.999
	c0-1.027-0.326-1.92-0.976-2.678c-0.699-0.783-1.551-1.174-2.556-1.174c-0.932,0-1.745,0.367-2.445,1.101
	c-0.71,0.77-1.064,1.688-1.064,2.751c0,1.076,0.354,1.987,1.064,2.733c0.712,0.733,1.521,1.1,2.428,1.1
	c0.281,0,0.6-0.002,0.956-0.009c0.355-0.006,0.704-0.101,1.048-0.284c0.221-0.124,0.424-0.293,0.607-0.514s0.343-0.44,0.477-0.66
	c0.136-0.221,0.282-0.495,0.442-0.826L-555.984,106.999z"/>
<path stroke="#000000" stroke-width="0.5896" stroke-miterlimit="10" d="M-604.419,135.02c-1.604,1.7-3.585,2.554-5.943,2.554
	c-2.359,0-4.339-0.854-5.945-2.554c-1.628-1.75-2.441-3.878-2.441-6.38c0-2.577,0.802-4.705,2.407-6.381
	c1.604-1.702,3.586-2.552,5.944-2.552c0.606,0,1.155,0.061,1.639,0.181c0.487,0.123,1.035,0.304,1.642,0.547
	c0.414,0.17,0.839,0.396,1.277,0.676c0.437,0.278,0.838,0.559,1.203,0.838c0.363,0.278,0.778,0.625,1.238,1.039v-11.158h1.386
	v16.811C-602.013,131.214-602.815,133.342-604.419,135.02z M-603.361,124.837c-0.511-0.534-0.962-0.977-1.351-1.327
	c-0.388-0.353-0.827-0.704-1.311-1.056c-0.488-0.351-0.962-0.625-1.423-0.818c-0.559-0.219-1.044-0.376-1.459-0.472
	c-0.413-0.098-0.898-0.146-1.457-0.146c-1.847,0-3.465,0.728-4.85,2.182c-1.411,1.527-2.116,3.346-2.116,5.457
	c0,2.133,0.705,3.941,2.116,5.42c1.41,1.455,3.013,2.182,4.813,2.182c2.041,0,3.717-0.75,5.03-2.255
	c1.313-1.48,1.969-3.261,1.969-5.348L-603.361,124.837z"/>
<path stroke="#000000" stroke-width="0.5896" stroke-miterlimit="10" d="M-584,134.91c-1.679,1.776-3.731,2.663-6.164,2.663
	c-2.454,0-4.521-0.865-6.197-2.59c-1.678-1.75-2.516-3.865-2.516-6.344c0-2.456,0.837-4.558,2.516-6.309
	c1.677-1.751,3.731-2.625,6.163-2.625c2.455,0,4.52,0.874,6.199,2.625c1.702,1.774,2.551,3.876,2.551,6.309
	C-581.45,131.045-582.299,133.136-584,134.91z M-582.908,128.657c0-2.037-0.691-3.819-2.078-5.347
	c-1.386-1.529-3.11-2.292-5.178-2.292c-2.064,0-3.791,0.751-5.176,2.256c-1.411,1.552-2.115,3.346-2.115,5.383
	c0,2.014,0.693,3.784,2.079,5.311c1.385,1.527,3.11,2.292,5.178,2.292c2.089,0,3.816-0.75,5.178-2.255
	c1.386-1.48,2.079-3.261,2.079-5.348H-582.908z"/>
<path stroke="#000000" stroke-width="0.5896" stroke-miterlimit="10" d="M-578.24,144.062c-1.071,0.875-2.357,1.313-3.864,1.313
	h-0.801v-1.313h0.801c1.167,0,2.139-0.339,2.915-1.02c0.949-0.804,1.425-1.932,1.425-3.391v-19.727h1.458v20.091
	C-576.306,141.74-576.95,143.09-578.24,144.062z M-576.271,115.914c-0.217,0.218-0.484,0.327-0.8,0.327s-0.571-0.096-0.766-0.292
	c-0.221-0.218-0.328-0.485-0.328-0.801c0-0.292,0.097-0.535,0.29-0.729c0.22-0.218,0.488-0.328,0.804-0.328
	c0.266,0,0.521,0.096,0.766,0.292c0.217,0.195,0.328,0.451,0.328,0.766C-575.978,115.464-576.076,115.719-576.271,115.914z"/>
<path stroke="#000000" stroke-width="0.5896" stroke-miterlimit="10" d="M-557.858,134.91c-1.677,1.776-3.731,2.663-6.161,2.663
	c-2.457,0-4.523-0.865-6.199-2.59c-1.679-1.75-2.516-3.865-2.516-6.344c0-2.456,0.837-4.558,2.516-6.309
	c1.676-1.751,3.728-2.625,6.161-2.625c2.457,0,4.521,0.874,6.199,2.625c1.704,1.774,2.553,3.876,2.553,6.309
	C-555.306,131.045-556.155,133.136-557.858,134.91z M-556.764,128.657c0-2.037-0.691-3.819-2.079-5.347
	c-1.386-1.529-3.111-2.292-5.176-2.292c-2.068,0-3.792,0.751-5.178,2.256c-1.412,1.552-2.117,3.346-2.117,5.383
	c0,2.014,0.693,3.784,2.08,5.311c1.384,1.527,3.11,2.292,5.176,2.292c2.092,0,3.816-0.75,5.178-2.255
	c1.388-1.48,2.081-3.261,2.081-5.348H-556.764z"/>
<linearGradient id="SVGID_25_" gradientUnits="userSpaceOnUse" x1="-701.5479" y1="92.3857" x2="-663.3955" y2="92.3857">
	<stop  offset="0" style="stop-color:#3692CC"/>
	<stop  offset="1" style="stop-color:#74B9D7"/>
</linearGradient>
<polygon fill="url(#SVGID_25_)" points="-701.548,100.158 -663.396,76.372 -663.396,92.502 -687.77,108.4 "/>
<linearGradient id="SVGID_26_" gradientUnits="userSpaceOnUse" x1="-444.4697" y1="137.3877" x2="-406.3193" y2="137.3877" gradientTransform="matrix(-1 0 0 -1 -1059.4395 258.7979)">
	<stop  offset="0" style="stop-color:#3692CC"/>
	<stop  offset="1" style="stop-color:#74B9D7"/>
</linearGradient>
<polygon fill="url(#SVGID_26_)" points="-614.97,113.637 -653.12,137.424 -653.12,121.293 -628.745,105.396 "/>
<linearGradient id="SVGID_27_" gradientUnits="userSpaceOnUse" x1="-444.4697" y1="163.9419" x2="-378.5085" y2="163.9419" gradientTransform="matrix(-1 0 0 -1 -1059.4395 258.7979)">
	<stop  offset="0" style="stop-color:#74B9D7"/>
	<stop  offset="1" style="stop-color:#3692CC"/>
</linearGradient>
<polygon fill="url(#SVGID_27_)" points="-653.12,92.678 -653.12,76.075 -614.97,97.859 -614.97,113.637 "/>
<linearGradient id="SVGID_28_" gradientUnits="userSpaceOnUse" x1="-701.5479" y1="118.939" x2="-635.5832" y2="118.939">
	<stop  offset="0" style="stop-color:#74B9D7"/>
	<stop  offset="1" style="stop-color:#3692CC"/>
</linearGradient>
<polygon fill="url(#SVGID_28_)" points="-663.396,121.118 -663.396,137.72 -701.548,115.936 -701.548,100.158 "/>
<path d="M-311.646,95.23c-0.977,0-1.709-0.258-2.198-0.775c-0.502-0.529-0.753-1.239-0.753-2.128v-6.468h-1.035v-0.775h1.035v-2.801
	h0.796v2.801h3.599v0.775h-3.599v6.55c0,0.632,0.173,1.127,0.517,1.486c0.374,0.375,0.863,0.56,1.465,0.56h1.617v0.775H-311.646z"/>
<path d="M-301.307,95.23v-6.061c0-1.018-0.314-1.856-0.947-2.516c-0.618-0.659-1.386-0.988-2.306-0.988
	c-0.934,0-1.71,0.323-2.326,0.968c-0.617,0.659-0.927,1.504-0.927,2.536v6.061h-0.817V84.287v-4.05h0.796v6.227
	c0.402-0.503,0.869-0.891,1.4-1.164c0.547-0.272,1.163-0.409,1.854-0.409c1.148,0,2.117,0.381,2.908,1.142
	c0.818,0.79,1.228,1.795,1.228,3.017v6.182H-301.307z"/>
<path d="M-297.537,82.65c-0.129,0.128-0.286,0.194-0.473,0.194c-0.188,0-0.338-0.057-0.452-0.173
	c-0.13-0.128-0.194-0.286-0.194-0.473c0-0.173,0.064-0.316,0.194-0.431c0.099-0.129,0.251-0.193,0.452-0.193
	c0.158,0,0.309,0.057,0.452,0.172c0.13,0.115,0.194,0.267,0.194,0.453C-297.363,82.384-297.422,82.535-297.537,82.65z
	 M-298.42,95.23V85.084h0.862V95.23H-298.42z"/>
<path d="M-288.101,95.23v-6.061c0-1.018-0.317-1.856-0.948-2.516c-0.617-0.659-1.387-0.988-2.305-0.988
	c-0.934,0-1.709,0.323-2.327,0.968c-0.618,0.659-0.927,1.504-0.927,2.536v6.061h-0.818v-6.182c0-1.235,0.387-2.233,1.164-2.995
	c0.775-0.776,1.736-1.163,2.886-1.163s2.119,0.381,2.909,1.142c0.818,0.79,1.228,1.795,1.228,3.017v6.182H-288.101z"/>
<path d="M-279.01,87.324c-0.129,0.187-0.256,0.371-0.377,0.549c-0.121,0.18-0.24,0.363-0.356,0.55
	c-0.3,0.431-0.623,0.746-0.969,0.947c0.761,0.015,1.399,0.281,1.917,0.798c0.633,0.589,0.948,1.379,0.948,2.369v2.693h-0.861v-2.65
	c0-0.689-0.229-1.278-0.689-1.766c-0.474-0.475-1.099-0.711-1.876-0.711h-2.864v5.127h-0.817V80.236h0.797v9.091h1.679
	c0.487,0,0.95-0.216,1.38-0.646c0.143-0.144,0.33-0.362,0.56-0.657c0.231-0.294,0.497-0.679,0.797-1.152l1.194-1.789h1.047
	L-279.01,87.324z"/>
<path d="M-274.637,82.65c-0.13,0.128-0.286,0.194-0.474,0.194c-0.186,0-0.337-0.057-0.451-0.173
	c-0.13-0.128-0.194-0.286-0.194-0.473c0-0.173,0.064-0.316,0.194-0.431c0.099-0.129,0.25-0.193,0.451-0.193
	c0.158,0,0.31,0.057,0.452,0.172c0.129,0.115,0.193,0.267,0.193,0.453C-274.465,82.384-274.521,82.535-274.637,82.65z
	 M-275.52,95.23V85.084h0.861V95.23H-275.52z"/>
<path d="M-265.201,95.23v-6.061c0-1.018-0.315-1.856-0.947-2.516c-0.619-0.659-1.387-0.988-2.307-0.988
	c-0.932,0-1.708,0.323-2.324,0.968c-0.619,0.659-0.928,1.504-0.928,2.536v6.061h-0.818v-6.182c0-1.235,0.388-2.233,1.162-2.995
	c0.776-0.776,1.738-1.163,2.888-1.163s2.118,0.381,2.909,1.142c0.818,0.79,1.227,1.795,1.227,3.017v6.182H-265.201z"/>
<path d="M-253.59,98.725c-0.961,0.888-2.189,1.332-3.683,1.332c-0.978,0-1.96-0.17-2.954-0.509l0.26-0.784
	c0.201,0.072,0.402,0.137,0.604,0.195c0.199,0.057,0.424,0.114,0.667,0.171c0.446,0.101,0.877,0.151,1.294,0.151
	c1.465,0,2.542-0.346,3.23-1.039c0.791-0.762,1.187-1.997,1.187-3.701v-1.228c-0.188,0.259-0.353,0.481-0.497,0.668
	c-0.142,0.187-0.309,0.374-0.494,0.56c-0.188,0.187-0.373,0.338-0.561,0.453c-0.461,0.258-0.919,0.398-1.379,0.42
	c-0.459,0.021-0.861,0.033-1.207,0.033c-1.393,0-2.563-0.504-3.512-1.509c-0.963-1.033-1.443-2.291-1.443-3.77
	c0-1.523,0.474-2.779,1.424-3.77c0.945-1.006,2.117-1.508,3.51-1.508s2.565,0.5,3.512,1.503c0.962,1.031,1.443,2.285,1.443,3.76
	v4.918C-252.189,96.619-252.655,97.837-253.59,98.725z M-252.985,90.179c0-1.204-0.382-2.25-1.143-3.138
	c-0.819-0.917-1.817-1.375-2.995-1.375c-1.092,0-2.045,0.43-2.865,1.29c-0.834,0.902-1.248,1.977-1.248,3.224
	c0,1.261,0.414,2.329,1.248,3.203c0.834,0.859,1.781,1.289,2.844,1.289c0.33,0,0.703-0.003,1.121-0.01
	c0.416-0.007,0.824-0.119,1.227-0.333c0.26-0.144,0.497-0.344,0.713-0.602c0.215-0.258,0.4-0.516,0.559-0.773
	c0.158-0.259,0.33-0.58,0.518-0.968L-252.985,90.179z"/>
<path stroke="#000000" stroke-width="0.5896" stroke-miterlimit="10" d="M-319.851,134.672c-2.21,2.342-4.94,3.518-8.188,3.518
	c-3.249,0-5.978-1.176-8.19-3.518c-2.244-2.41-3.363-5.343-3.363-8.79c0-3.55,1.104-6.481,3.314-8.791
	c2.211-2.345,4.94-3.516,8.189-3.516c0.836,0,1.592,0.083,2.259,0.25c0.671,0.169,1.425,0.418,2.261,0.754
	c0.57,0.234,1.156,0.545,1.76,0.931c0.602,0.384,1.154,0.77,1.657,1.155c0.501,0.383,1.071,0.861,1.706,1.43v-15.371h1.91v23.158
	C-316.535,129.43-317.641,132.362-319.851,134.672z M-318.393,120.645c-0.704-0.735-1.325-1.345-1.861-1.828
	c-0.535-0.485-1.139-0.97-1.807-1.455c-0.671-0.484-1.324-0.86-1.96-1.127c-0.771-0.301-1.439-0.518-2.01-0.649
	c-0.568-0.136-1.238-0.202-2.008-0.202c-2.545,0-4.772,1.003-6.681,3.007c-1.943,2.104-2.915,4.609-2.915,7.517
	c0,2.938,0.972,5.429,2.915,7.467c1.942,2.005,4.15,3.006,6.631,3.006c2.812,0,5.121-1.033,6.931-3.106
	c1.809-2.039,2.712-4.493,2.712-7.367L-318.393,120.645z"/>
<path stroke="#000000" stroke-width="0.5896" stroke-miterlimit="10" d="M-291.72,134.521c-2.313,2.446-5.141,3.669-8.493,3.669
	c-3.381,0-6.229-1.191-8.537-3.568c-2.313-2.411-3.467-5.324-3.467-8.74c0-3.382,1.154-6.279,3.467-8.69
	c2.309-2.412,5.139-3.616,8.49-3.616c3.383,0,6.227,1.204,8.54,3.616c2.342,2.444,3.515,5.34,3.515,8.69
	C-288.205,129.198-289.378,132.078-291.72,134.521z M-290.215,125.907c0-2.807-0.955-5.262-2.863-7.367
	c-1.909-2.106-4.284-3.157-7.135-3.157c-2.844,0-5.221,1.035-7.131,3.108c-1.943,2.138-2.913,4.608-2.913,7.416
	c0,2.775,0.954,5.212,2.862,7.317c1.91,2.104,4.285,3.156,7.135,3.156c2.879,0,5.258-1.033,7.134-3.106
	c1.909-2.039,2.863-4.493,2.863-7.367H-290.215z"/>
<path stroke="#000000" stroke-width="0.5896" stroke-miterlimit="10" d="M-283.785,147.13c-1.474,1.206-3.246,1.81-5.322,1.81
	h-1.105v-1.81h1.105c1.607,0,2.947-0.468,4.017-1.405c1.306-1.107,1.961-2.662,1.961-4.672v-27.177h2.01v27.678
	C-281.12,143.932-282.008,145.792-283.785,147.13z M-281.072,108.352c-0.299,0.3-0.668,0.451-1.104,0.451
	c-0.435,0-0.787-0.132-1.055-0.403c-0.303-0.3-0.451-0.668-0.451-1.104c0-0.402,0.133-0.737,0.398-1.004
	c0.305-0.301,0.673-0.453,1.107-0.453c0.367,0,0.719,0.133,1.056,0.402c0.299,0.269,0.452,0.621,0.452,1.055
	C-280.668,107.731-280.805,108.083-281.072,108.352z"/>
<path stroke="#000000" stroke-width="0.5896" stroke-miterlimit="10" d="M-255.707,134.521c-2.311,2.446-5.141,3.669-8.486,3.669
	c-3.385,0-6.232-1.191-8.54-3.568c-2.313-2.411-3.466-5.324-3.466-8.74c0-3.382,1.152-6.279,3.466-8.69
	c2.308-2.412,5.136-3.616,8.487-3.616c3.385,0,6.229,1.204,8.539,3.616c2.348,2.444,3.518,5.34,3.518,8.69
	C-252.189,129.198-253.359,132.078-255.707,134.521z M-254.199,125.907c0-2.807-0.952-5.262-2.863-7.367
	c-1.909-2.106-4.287-3.157-7.131-3.157c-2.85,0-5.225,1.035-7.133,3.108c-1.945,2.138-2.917,4.608-2.917,7.416
	c0,2.775,0.954,5.212,2.866,7.317c1.906,2.104,4.284,3.156,7.131,3.156c2.883,0,5.258-1.033,7.133-3.106
	c1.912-2.039,2.866-4.493,2.866-7.367H-254.199z"/>
<linearGradient id="SVGID_29_" gradientUnits="userSpaceOnUse" x1="-384.4785" y1="95.7085" x2="-349.5098" y2="95.7085">
	<stop  offset="0" style="stop-color:#3692CC"/>
	<stop  offset="1" style="stop-color:#74B9D7"/>
</linearGradient>
<polygon fill="url(#SVGID_29_)" points="-384.479,102.833 -349.51,81.031 -349.51,95.816 -371.852,110.386 "/>
<linearGradient id="SVGID_30_" gradientUnits="userSpaceOnUse" x1="-384.4785" y1="120.0469" x2="-324.0182" y2="120.0469">
	<stop  offset="0" style="stop-color:#74B9D7"/>
	<stop  offset="1" style="stop-color:#3692CC"/>
</linearGradient>
<polygon fill="url(#SVGID_30_)" points="-349.51,122.044 -349.51,137.261 -384.479,117.294 -384.479,102.833 "/>
<linearGradient id="SVGID_31_" gradientUnits="userSpaceOnUse" x1="-740.9141" y1="156.3584" x2="-705.9443" y2="156.3584" gradientTransform="matrix(-1 0 0 -1 -1059.4395 258.7979)">
	<stop  offset="0" style="stop-color:#3692CC"/>
	<stop  offset="1" style="stop-color:#74B9D7"/>
</linearGradient>
<polygon fill="url(#SVGID_31_)" points="-318.525,95.315 -353.495,117.117 -353.495,102.332 -331.153,87.761 "/>
<linearGradient id="SVGID_32_" gradientUnits="userSpaceOnUse" x1="-740.9141" y1="180.6973" x2="-680.4521" y2="180.6973" gradientTransform="matrix(-1 0 0 -1 -1059.4395 258.7979)">
	<stop  offset="0" style="stop-color:#74B9D7"/>
	<stop  offset="1" style="stop-color:#3692CC"/>
</linearGradient>
<polygon fill="url(#SVGID_32_)" points="-353.495,76.104 -353.495,60.886 -318.525,80.853 -318.525,95.315 "/>
<path d="M-578.692,242.518c-0.934,0-1.635-0.247-2.104-0.742c-0.48-0.507-0.722-1.187-0.722-2.038v-6.193h-0.99v-0.742h0.99v-2.682
	h0.763v2.682h3.446v0.742h-3.446v6.272c0,0.605,0.165,1.079,0.496,1.422c0.356,0.358,0.825,0.536,1.403,0.536h1.547v0.742H-578.692z
	"/>
<path d="M-568.792,242.518v-5.803c0-0.974-0.302-1.777-0.905-2.409c-0.593-0.631-1.328-0.946-2.208-0.946
	c-0.895,0-1.637,0.309-2.229,0.926c-0.59,0.632-0.886,1.44-0.886,2.429v5.803h-0.784v-10.479v-3.878h0.763v5.962
	c0.384-0.482,0.832-0.854,1.341-1.115c0.522-0.261,1.113-0.391,1.774-0.391c1.1,0,2.027,0.365,2.784,1.093
	c0.784,0.757,1.177,1.718,1.177,2.889v5.919H-568.792z"/>
<path d="M-565.181,230.472c-0.126,0.124-0.275,0.186-0.455,0.186c-0.179,0-0.322-0.054-0.432-0.166
	c-0.125-0.123-0.187-0.274-0.187-0.454c0-0.165,0.062-0.302,0.187-0.412c0.095-0.124,0.24-0.186,0.432-0.186
	c0.152,0,0.297,0.054,0.434,0.165c0.124,0.111,0.187,0.255,0.187,0.433C-565.016,230.217-565.072,230.362-565.181,230.472z
	 M-566.027,242.518v-9.715h0.825v9.715H-566.027z"/>
<path d="M-556.146,242.518v-5.803c0-0.974-0.304-1.777-0.91-2.409c-0.589-0.631-1.326-0.946-2.206-0.946
	c-0.894,0-1.637,0.309-2.227,0.926c-0.592,0.632-0.889,1.44-0.889,2.429v5.803h-0.782v-5.919c0-1.183,0.37-2.139,1.114-2.868
	c0.742-0.742,1.663-1.113,2.762-1.113c1.101,0,2.029,0.365,2.787,1.093c0.782,0.757,1.175,1.718,1.175,2.889v5.919H-556.146z"/>
<path d="M-547.444,234.947c-0.122,0.18-0.244,0.355-0.36,0.526c-0.116,0.173-0.229,0.348-0.34,0.527
	c-0.289,0.412-0.598,0.714-0.929,0.906c0.73,0.014,1.341,0.269,1.837,0.764c0.605,0.564,0.907,1.32,0.907,2.269v2.578h-0.825v-2.537
	c0-0.66-0.22-1.224-0.66-1.691c-0.453-0.455-1.052-0.681-1.795-0.681h-2.743v4.909h-0.784v-14.356h0.764v8.705h1.608
	c0.467,0,0.909-0.206,1.321-0.619c0.138-0.137,0.315-0.347,0.534-0.629c0.223-0.281,0.476-0.65,0.765-1.103l1.144-1.712h1.002
	L-547.444,234.947z"/>
<path d="M-543.255,230.472c-0.124,0.124-0.274,0.186-0.453,0.186c-0.18,0-0.324-0.054-0.433-0.166
	c-0.126-0.123-0.188-0.274-0.188-0.454c0-0.165,0.062-0.302,0.188-0.412c0.094-0.124,0.239-0.186,0.433-0.186
	c0.149,0,0.296,0.054,0.431,0.165c0.125,0.111,0.187,0.255,0.187,0.433C-543.091,230.217-543.146,230.362-543.255,230.472z
	 M-544.101,242.518v-9.715h0.823v9.715H-544.101z"/>
<path d="M-534.222,242.518v-5.803c0-0.974-0.303-1.777-0.906-2.409c-0.593-0.631-1.326-0.946-2.208-0.946
	c-0.895,0-1.637,0.309-2.227,0.926c-0.592,0.632-0.888,1.44-0.888,2.429v5.803h-0.784v-5.919c0-1.183,0.371-2.139,1.113-2.868
	c0.743-0.742,1.664-1.113,2.765-1.113s2.027,0.365,2.784,1.093c0.785,0.757,1.176,1.718,1.176,2.889v5.919H-534.222z"/>
<path d="M-523.104,245.864c-0.922,0.85-2.096,1.275-3.526,1.275c-0.936,0-1.877-0.163-2.829-0.488l0.248-0.75
	c0.193,0.068,0.387,0.13,0.579,0.187c0.19,0.055,0.407,0.11,0.639,0.165c0.428,0.096,0.839,0.145,1.239,0.145
	c1.402,0,2.433-0.332,3.094-0.995c0.756-0.73,1.136-1.913,1.136-3.544v-1.176c-0.181,0.249-0.338,0.461-0.476,0.64
	c-0.137,0.179-0.297,0.358-0.475,0.537c-0.181,0.179-0.357,0.324-0.536,0.434c-0.44,0.248-0.88,0.381-1.321,0.402
	c-0.438,0.021-0.824,0.031-1.155,0.031c-1.333,0-2.453-0.482-3.361-1.444c-0.923-0.99-1.383-2.194-1.383-3.609
	c0-1.458,0.453-2.661,1.362-3.609c0.907-0.963,2.029-1.444,3.362-1.444c1.332,0,2.455,0.479,3.361,1.439
	c0.921,0.987,1.382,2.188,1.382,3.6v4.709C-521.764,243.847-522.208,245.013-523.104,245.864z M-522.524,237.681
	c0-1.152-0.366-2.154-1.095-3.004c-0.785-0.878-1.74-1.317-2.868-1.317c-1.046,0-1.958,0.412-2.744,1.234
	c-0.796,0.864-1.193,1.894-1.193,3.087c0,1.207,0.397,2.23,1.193,3.066c0.799,0.824,1.708,1.234,2.725,1.234
	c0.315,0,0.673-0.002,1.072-0.01c0.399-0.006,0.79-0.113,1.177-0.318c0.247-0.138,0.475-0.329,0.681-0.577
	c0.205-0.248,0.385-0.494,0.534-0.741c0.152-0.248,0.316-0.555,0.496-0.927L-522.524,237.681z"/>
<path stroke="#000000" stroke-width="0.5896" stroke-miterlimit="10" d="M-582.826,275.757c-1.994,2.114-4.458,3.175-7.389,3.175
	c-2.933,0-5.395-1.061-7.392-3.175c-2.025-2.175-3.036-4.822-3.036-7.933c0-3.204,0.998-5.849,2.992-7.934
	c1.995-2.116,4.458-3.173,7.39-3.173c0.753,0,1.436,0.075,2.038,0.225c0.605,0.153,1.287,0.377,2.041,0.681
	c0.515,0.211,1.044,0.492,1.588,0.84c0.543,0.346,1.043,0.694,1.496,1.042c0.451,0.346,0.967,0.778,1.54,1.291v-13.872h1.724v20.9
	C-579.834,271.026-580.832,273.673-582.826,275.757z M-581.51,263.098c-0.635-0.664-1.196-1.214-1.68-1.65
	c-0.482-0.438-1.028-0.875-1.63-1.313c-0.606-0.437-1.196-0.776-1.769-1.017c-0.695-0.272-1.299-0.467-1.814-0.586
	c-0.513-0.123-1.117-0.183-1.812-0.183c-2.297,0-4.308,0.905-6.029,2.713c-1.754,1.898-2.631,4.16-2.631,6.784
	c0,2.652,0.876,4.899,2.631,6.739c1.753,1.809,3.745,2.712,5.984,2.712c2.538,0,4.622-0.933,6.254-2.803
	c1.633-1.84,2.448-4.054,2.448-6.648L-581.51,263.098z"/>
<path stroke="#000000" stroke-width="0.5896" stroke-miterlimit="10" d="M-557.439,275.622c-2.088,2.208-4.64,3.311-7.664,3.311
	c-3.05,0-5.62-1.075-7.705-3.22c-2.086-2.176-3.128-4.805-3.128-7.888c0-3.052,1.042-5.667,3.128-7.843
	c2.085-2.177,4.639-3.264,7.662-3.264c3.053,0,5.619,1.086,7.707,3.264c2.115,2.206,3.171,4.819,3.171,7.843
	C-554.269,270.817-555.324,273.416-557.439,275.622z M-556.081,267.847c0-2.533-0.859-4.749-2.585-6.648
	c-1.723-1.901-3.866-2.849-6.438-2.849c-2.566,0-4.713,0.935-6.436,2.805c-1.754,1.93-2.629,4.159-2.629,6.692
	c0,2.504,0.861,4.705,2.584,6.603c1.723,1.899,3.866,2.849,6.438,2.849c2.597,0,4.745-0.933,6.438-2.803
	c1.723-1.84,2.584-4.054,2.584-6.648H-556.081z"/>
<path stroke="#000000" stroke-width="0.5896" stroke-miterlimit="10" d="M-550.277,287c-1.331,1.088-2.931,1.633-4.805,1.633h-0.995
	V287h0.995c1.451,0,2.66-0.422,3.625-1.268c1.18-0.999,1.771-2.402,1.771-4.216v-24.526h1.813v24.979
	C-547.872,284.114-548.674,285.792-550.277,287z M-547.829,252.004c-0.271,0.271-0.603,0.407-0.995,0.407
	c-0.394,0-0.711-0.119-0.952-0.364c-0.274-0.27-0.408-0.603-0.408-0.996c0-0.363,0.121-0.665,0.36-0.907
	c0.274-0.271,0.606-0.408,1-0.408c0.33,0,0.647,0.12,0.952,0.362c0.27,0.243,0.407,0.561,0.407,0.953
	C-547.465,251.444-547.588,251.762-547.829,252.004z"/>
<path stroke="#000000" stroke-width="0.5896" stroke-miterlimit="10" d="M-524.938,275.622c-2.085,2.208-4.639,3.311-7.659,3.311
	c-3.055,0-5.624-1.075-7.707-3.22c-2.088-2.176-3.128-4.805-3.128-7.888c0-3.052,1.04-5.667,3.128-7.843
	c2.083-2.177,4.635-3.264,7.659-3.264c3.055,0,5.622,1.086,7.707,3.264c2.118,2.206,3.174,4.819,3.174,7.843
	C-521.764,270.817-522.819,273.416-524.938,275.622z M-523.577,267.847c0-2.533-0.859-4.749-2.584-6.648
	c-1.723-1.901-3.869-2.849-6.436-2.849c-2.571,0-4.715,0.935-6.438,2.805c-1.755,1.93-2.632,4.159-2.632,6.692
	c0,2.504,0.861,4.705,2.586,6.603c1.721,1.899,3.867,2.849,6.436,2.849c2.602,0,4.745-0.933,6.438-2.803
	c1.725-1.84,2.586-4.054,2.586-6.648H-523.577z"/>
<linearGradient id="SVGID_33_" gradientUnits="userSpaceOnUse" x1="-647.7012" y1="232.4414" x2="-608.0596" y2="232.4414">
	<stop  offset="0" style="stop-color:#3692CC"/>
	<stop  offset="1" style="stop-color:#74B9D7"/>
</linearGradient>
<polygon fill="url(#SVGID_33_)" points="-647.701,240.519 -608.06,215.802 -608.06,232.563 -633.384,249.081 "/>
<linearGradient id="SVGID_34_" gradientUnits="userSpaceOnUse" x1="-471.1333" y1="7.4463" x2="-431.4941" y2="7.4463" gradientTransform="matrix(-1 0 0 -1 -1059.4395 258.7979)">
	<stop  offset="0" style="stop-color:#3692CC"/>
	<stop  offset="1" style="stop-color:#74B9D7"/>
</linearGradient>
<polygon fill="url(#SVGID_34_)" points="-588.306,243.273 -627.946,267.991 -627.946,251.229 -602.62,234.713 "/>
<linearGradient id="SVGID_35_" gradientUnits="userSpaceOnUse" x1="-471.1333" y1="35.0381" x2="-402.598" y2="35.0381" gradientTransform="matrix(-1 0 0 -1 -1059.4395 258.7979)">
	<stop  offset="0" style="stop-color:#74B9D7"/>
	<stop  offset="1" style="stop-color:#3692CC"/>
</linearGradient>
<polygon fill="url(#SVGID_35_)" points="-627.946,221.498 -627.946,204.246 -588.306,226.88 -588.306,243.273 "/>
<linearGradient id="SVGID_36_" gradientUnits="userSpaceOnUse" x1="-647.7012" y1="260.0322" x2="-579.1616" y2="260.0322">
	<stop  offset="0" style="stop-color:#74B9D7"/>
	<stop  offset="1" style="stop-color:#3692CC"/>
</linearGradient>
<polygon fill="url(#SVGID_36_)" points="-608.06,262.295 -608.06,279.546 -647.701,256.911 -647.701,240.519 "/>
<path d="M183.022,97.795c-2.659,0-4.654-0.704-5.989-2.114c-1.364-1.444-2.052-3.377-2.052-5.8V72.249h-2.818v-2.111h2.818v-7.635
	h2.168v7.635h9.812v2.111h-9.812v17.857c0,1.721,0.474,3.07,1.418,4.051c1.013,1.019,2.339,1.525,3.989,1.525h4.404v2.114H183.022z"
	/>
<path d="M211.997,97.795V81.273c0-2.773-0.858-5.061-2.576-6.858c-1.689-1.796-3.785-2.693-6.288-2.693
	c-2.546,0-4.661,0.879-6.341,2.635c-1.689,1.799-2.531,4.101-2.531,6.917v16.522h-2.226V67.961V56.922h2.168v16.975
	c1.098-1.373,2.372-2.43,3.817-3.176c1.491-0.74,3.171-1.113,5.055-1.113c3.128,0,5.769,1.038,7.933,3.112
	c2.224,2.153,3.342,4.892,3.342,8.222v16.852H211.997z"/>
<path d="M222.476,63.5c-0.357,0.353-0.783,0.529-1.297,0.529c-0.504,0-0.919-0.156-1.229-0.471c-0.35-0.35-0.528-0.782-0.528-1.292
	c0-0.468,0.179-0.858,0.528-1.174c0.275-0.35,0.684-0.529,1.229-0.529c0.436,0,0.847,0.158,1.233,0.47
	c0.358,0.316,0.537,0.727,0.537,1.234C222.949,62.776,222.785,63.188,222.476,63.5z M220.065,97.795V70.137h2.347v27.658H220.065z"
	/>
<path d="M247.985,97.795V81.273c0-2.773-0.866-5.061-2.586-6.858c-1.68-1.796-3.774-2.693-6.283-2.693
	c-2.541,0-4.661,0.879-6.341,2.635c-1.685,1.799-2.525,4.101-2.525,6.917v16.522h-2.231V80.943c0-3.367,1.055-6.089,3.17-8.164
	c2.116-2.113,4.739-3.17,7.87-3.17c3.133,0,5.774,1.038,7.93,3.112c2.231,2.153,3.344,4.892,3.344,8.222v16.852H247.985z"/>
<path d="M271.617,76.241c-0.351,0.513-0.698,1.013-1.027,1.499c-0.33,0.49-0.658,0.99-0.968,1.502
	c-0.823,1.172-1.704,2.031-2.639,2.579c2.067,0.041,3.815,0.769,5.218,2.176c1.725,1.603,2.586,3.757,2.586,6.457v7.342h-2.344
	V90.57c0-1.877-0.625-3.48-1.882-4.813c-1.294-1.293-2.997-1.938-5.112-1.938h-7.809v13.975h-2.231V56.922h2.173v24.782h4.576
	c1.33,0,2.594-0.588,3.765-1.761c0.388-0.392,0.896-0.986,1.521-1.792c0.63-0.801,1.354-1.851,2.178-3.14l3.251-4.874h2.854
	L271.617,76.241z"/>
<path d="M283.854,63.5c-0.354,0.353-0.776,0.529-1.287,0.529c-0.509,0-0.917-0.156-1.231-0.471c-0.357-0.35-0.536-0.782-0.536-1.292
	c0-0.468,0.179-0.858,0.536-1.174c0.262-0.35,0.677-0.529,1.231-0.529c0.431,0,0.841,0.158,1.229,0.47
	c0.353,0.316,0.526,0.727,0.526,1.234C284.321,62.776,284.168,63.188,283.854,63.5z M281.443,97.795V70.137h2.352v27.658H281.443z"
	/>
<path d="M309.357,97.795V81.273c0-2.773-0.858-5.061-2.581-6.858c-1.685-1.796-3.779-2.693-6.288-2.693
	c-2.541,0-4.656,0.879-6.336,2.635c-1.685,1.799-2.53,4.101-2.53,6.917v16.522h-2.231V80.943c0-3.367,1.055-6.089,3.17-8.164
	c2.116-2.113,4.734-3.17,7.87-3.17c3.133,0,5.779,1.038,7.93,3.112c2.231,2.153,3.35,4.892,3.35,8.222v16.852H309.357z"/>
<path d="M339.93,107.32c-2.624,2.42-5.974,3.629-10.041,3.629c-2.666,0-5.344-0.462-8.058-1.385l0.707-2.139
	c0.552,0.195,1.099,0.37,1.649,0.533c0.547,0.155,1.161,0.311,1.816,0.467c1.219,0.275,2.387,0.412,3.527,0.412
	c3.994,0,6.928-0.943,8.807-2.832c2.153-2.075,3.233-5.443,3.233-10.087v-3.35c-0.509,0.709-0.959,1.311-1.353,1.822
	c-0.39,0.508-0.841,1.019-1.35,1.527c-0.509,0.507-1.018,0.921-1.533,1.232c-1.249,0.704-2.498,1.087-3.752,1.145
	c-1.25,0.058-2.348,0.088-3.292,0.088c-3.795,0-6.98-1.373-9.569-4.111c-2.624-2.818-3.941-6.245-3.941-10.276
	c0-4.15,1.297-7.576,3.884-10.275c2.579-2.743,5.779-4.112,9.569-4.112c3.795,0,6.993,1.363,9.574,4.098
	c2.619,2.812,3.932,6.229,3.932,10.25v13.41C343.74,101.58,342.471,104.898,339.93,107.32z M341.571,84.024
	c0-3.28-1.042-6.133-3.112-8.553c-2.236-2.499-4.953-3.75-8.167-3.75c-2.977,0-5.575,1.175-7.812,3.515
	c-2.267,2.459-3.395,5.391-3.395,8.788c0,3.438,1.128,6.349,3.395,8.731c2.273,2.342,4.863,3.514,7.754,3.514
	c0.904,0,1.916-0.01,3.055-0.03c1.141-0.018,2.251-0.321,3.35-0.907c0.697-0.392,1.354-0.937,1.936-1.642
	c0.59-0.704,1.099-1.405,1.523-2.109c0.432-0.704,0.902-1.58,1.411-2.636L341.571,84.024z"/>
<path stroke="#000000" stroke-width="0.5896" stroke-miterlimit="10" d="M184.875,186.309c-5.248,5.565-11.734,8.361-19.453,8.361
	c-7.716,0-14.203-2.795-19.463-8.361c-5.326-5.726-7.988-12.696-7.988-20.885c0-8.437,2.624-15.401,7.879-20.889
	c5.248-5.572,11.735-8.354,19.459-8.354c1.982,0,3.777,0.197,5.364,0.593c1.589,0.403,3.384,0.992,5.368,1.793
	c1.355,0.557,2.75,1.294,4.184,2.209c1.428,0.913,2.747,1.829,3.943,2.744c1.186,0.91,2.541,2.048,4.052,3.399v-36.525h4.535v55.029
	C192.755,173.854,190.126,180.819,184.875,186.309z M188.341,152.979c-1.67-1.747-3.15-3.195-4.425-4.344
	c-1.271-1.153-2.705-2.303-4.289-3.458c-1.596-1.151-3.149-2.042-4.656-2.677c-1.83-0.716-3.417-1.231-4.781-1.542
	c-1.35-0.326-2.939-0.482-4.768-0.482c-6.046,0-11.337,2.385-15.872,7.143c-4.619,4.999-6.923,10.952-6.923,17.862
	c0,6.982,2.304,12.9,6.923,17.743c4.613,4.767,9.864,7.144,15.759,7.144c6.676,0,12.166-2.458,16.459-7.383
	c4.307-4.843,6.452-10.673,6.452-17.503L188.341,152.979z"/>
<path stroke="#000000" stroke-width="0.5896" stroke-miterlimit="10" d="M251.718,185.952c-5.495,5.812-12.214,8.718-20.177,8.718
	c-8.03,0-14.797-2.831-20.289-8.477c-5.49-5.731-8.234-12.653-8.234-20.77c0-8.037,2.744-14.919,8.234-20.649
	c5.492-5.734,12.216-8.594,20.174-8.594c8.035,0,14.797,2.859,20.292,8.594c5.57,5.807,8.353,12.69,8.353,20.649
	C260.07,173.301,257.288,180.145,251.718,185.952z M255.293,165.482c0-6.668-2.264-12.503-6.804-17.503
	c-4.535-5.005-10.177-7.502-16.948-7.502c-6.756,0-12.41,2.459-16.945,7.385c-4.618,5.081-6.922,10.952-6.922,17.62
	c0,6.594,2.266,12.386,6.807,17.387c4.53,4.996,10.179,7.5,16.945,7.5c6.84,0,12.492-2.458,16.95-7.383
	c4.54-4.843,6.807-10.673,6.807-17.503H255.293z"/>
<path stroke="#000000" stroke-width="0.5896" stroke-miterlimit="10" d="M270.574,215.911c-3.503,2.863-7.719,4.299-12.651,4.299
	h-2.619v-4.299h2.619c3.822,0,7.008-1.113,9.549-3.342c3.103-2.629,4.661-6.323,4.661-11.1v-64.576h4.775v65.769
	C276.908,208.309,274.8,212.73,270.574,215.911z M277.019,123.77c-0.708,0.713-1.584,1.07-2.619,1.07s-1.868-0.313-2.503-0.958
	c-0.726-0.711-1.075-1.587-1.075-2.624c0-0.955,0.314-1.749,0.944-2.385c0.728-0.717,1.599-1.074,2.634-1.074
	c0.871,0,1.708,0.313,2.509,0.951c0.71,0.641,1.072,1.479,1.072,2.508C277.98,122.295,277.66,123.13,277.019,123.77z"/>
<path stroke="#000000" stroke-width="0.5896" stroke-miterlimit="10" d="M337.295,185.952c-5.492,5.812-12.221,8.718-20.168,8.718
	c-8.046,0-14.808-2.831-20.292-8.477c-5.495-5.731-8.237-12.653-8.237-20.77c0-8.037,2.742-14.919,8.237-20.649
	c5.484-5.734,12.203-8.594,20.166-8.594c8.043,0,14.802,2.859,20.294,8.594c5.573,5.807,8.352,12.69,8.352,20.649
	C345.646,173.301,342.868,180.145,337.295,185.952z M340.874,165.482c0-6.668-2.262-12.503-6.802-17.503
	c-4.535-5.005-10.189-7.502-16.945-7.502c-6.771,0-12.412,2.459-16.948,7.385c-4.621,5.081-6.931,10.952-6.931,17.62
	c0,6.594,2.27,12.386,6.811,17.387c4.529,4.996,10.176,7.5,16.942,7.5c6.845,0,12.493-2.458,16.95-7.383
	c4.545-4.843,6.812-10.673,6.812-17.503H340.874z"/>
<linearGradient id="SVGID_37_" gradientUnits="userSpaceOnUse" x1="0.8164" y1="77.8799" x2="100.1611" y2="77.8799">
	<stop  offset="0" style="stop-color:#3692CC"/>
	<stop  offset="1" style="stop-color:#74B9D7"/>
</linearGradient>
<polygon fill="url(#SVGID_37_)" points="0.816,98.12 100.161,36.181 100.161,78.184 36.693,119.578 "/>
<linearGradient id="SVGID_38_" gradientUnits="userSpaceOnUse" x1="-1196.6318" y1="139.7666" x2="-1097.2939" y2="139.7666" gradientTransform="matrix(-1 0 0 -1 -1059.4395 258.7979)">
	<stop  offset="0" style="stop-color:#3692CC"/>
	<stop  offset="1" style="stop-color:#74B9D7"/>
</linearGradient>
<polygon fill="url(#SVGID_38_)" points="137.192,98.789 37.854,160.73 37.854,118.727 101.32,77.333 "/>
<linearGradient id="SVGID_39_" gradientUnits="userSpaceOnUse" x1="-1196.6318" y1="208.9106" x2="-1024.8787" y2="208.9106" gradientTransform="matrix(-1 0 0 -1 -1059.4395 258.7979)">
	<stop  offset="0" style="stop-color:#74B9D7"/>
	<stop  offset="1" style="stop-color:#3692CC"/>
</linearGradient>
<polygon fill="url(#SVGID_39_)" points="37.854,44.219 37.854,0.986 137.192,57.709 137.192,98.789 "/>
<linearGradient id="SVGID_40_" gradientUnits="userSpaceOnUse" x1="0.8164" y1="147.022" x2="172.5815" y2="147.022">
	<stop  offset="0" style="stop-color:#74B9D7"/>
	<stop  offset="1" style="stop-color:#3692CC"/>
</linearGradient>
<polygon fill="url(#SVGID_40_)" points="100.161,152.693 100.161,195.924 0.816,139.199 0.816,98.12 "/>
<path d="M-316.077,246.447c-1.031,0-1.805-0.273-2.322-0.82c-0.529-0.56-0.796-1.31-0.796-2.249v-6.838h-1.093v-0.819h1.093v-2.961
	h0.841v2.961h3.805v0.819h-3.805v6.925c0,0.667,0.184,1.19,0.55,1.571c0.393,0.395,0.907,0.591,1.547,0.591h1.708v0.82H-316.077z"/>
<path d="M-304.841,246.447v-6.407c0-1.075-0.333-1.962-0.999-2.66c-0.655-0.696-1.468-1.044-2.438-1.044
	c-0.987,0-1.808,0.341-2.459,1.022c-0.655,0.698-0.981,1.59-0.981,2.682v6.407h-0.863v-11.569v-4.281h0.841v6.583
	c0.426-0.532,0.92-0.942,1.48-1.231c0.578-0.287,1.229-0.432,1.96-0.432c1.213,0,2.237,0.402,3.076,1.207
	c0.862,0.835,1.296,1.897,1.296,3.188v6.535H-304.841z"/>
<path d="M-300.777,233.148c-0.139,0.137-0.304,0.205-0.503,0.205c-0.195,0-0.356-0.061-0.477-0.183
	c-0.136-0.136-0.205-0.303-0.205-0.501c0-0.182,0.069-0.333,0.205-0.456c0.106-0.136,0.265-0.205,0.477-0.205
	c0.169,0,0.328,0.061,0.479,0.182c0.139,0.123,0.208,0.282,0.208,0.479C-300.594,232.867-300.657,233.027-300.777,233.148z
	 M-301.712,246.447v-10.726h0.91v10.726H-301.712z"/>
<path d="M-290.885,246.447v-6.407c0-1.075-0.336-1.962-1.003-2.66c-0.651-0.696-1.464-1.044-2.437-1.044
	c-0.985,0-1.808,0.341-2.459,1.022c-0.653,0.698-0.979,1.59-0.979,2.682v6.407h-0.865v-6.535c0-1.306,0.409-2.361,1.229-3.166
	c0.82-0.819,1.838-1.229,3.052-1.229c1.215,0,2.239,0.402,3.075,1.207c0.865,0.835,1.297,1.897,1.297,3.188v6.535H-290.885z"/>
<path d="M-281.721,238.089c-0.136,0.199-0.271,0.393-0.398,0.581c-0.128,0.19-0.255,0.384-0.375,0.583
	c-0.319,0.455-0.661,0.788-1.023,1c0.802,0.016,1.479,0.298,2.023,0.844c0.669,0.622,1.003,1.457,1.003,2.504v2.847h-0.909v-2.802
	c0-0.728-0.242-1.35-0.729-1.866c-0.502-0.501-1.162-0.751-1.982-0.751h-3.028v5.419h-0.865v-15.85h0.843v9.61h1.774
	c0.516,0,1.006-0.228,1.46-0.683c0.15-0.152,0.348-0.382,0.59-0.695c0.244-0.311,0.525-0.718,0.845-1.218l1.261-1.89h1.106
	L-281.721,238.089z"/>
<path d="M-276.976,233.148c-0.137,0.137-0.301,0.205-0.499,0.205c-0.197,0-0.355-0.061-0.478-0.183
	c-0.139-0.136-0.208-0.303-0.208-0.501c0-0.182,0.069-0.333,0.208-0.456c0.102-0.136,0.263-0.205,0.478-0.205
	c0.167,0,0.326,0.061,0.477,0.182c0.137,0.123,0.204,0.282,0.204,0.479C-276.794,232.867-276.854,233.027-276.976,233.148z
	 M-277.91,246.447v-10.726h0.912v10.726H-277.91z"/>
<path d="M-267.085,246.447v-6.407c0-1.075-0.333-1.962-1.001-2.66c-0.653-0.696-1.466-1.044-2.438-1.044
	c-0.985,0-1.806,0.341-2.457,1.022c-0.653,0.698-0.981,1.59-0.981,2.682v6.407h-0.865v-6.535c0-1.306,0.409-2.361,1.229-3.166
	c0.82-0.819,1.836-1.229,3.052-1.229c1.215,0,2.241,0.402,3.075,1.207c0.865,0.835,1.299,1.897,1.299,3.188v6.535H-267.085z"/>
<path d="M-255.229,250.141c-1.018,0.938-2.316,1.407-3.894,1.407c-1.034,0-2.072-0.179-3.125-0.537l0.274-0.83
	c0.214,0.076,0.426,0.144,0.64,0.207c0.212,0.06,0.45,0.121,0.704,0.181c0.473,0.107,0.926,0.16,1.368,0.16
	c1.549,0,2.687-0.366,3.415-1.098c0.835-0.805,1.254-2.111,1.254-3.912v-1.299c-0.197,0.275-0.372,0.508-0.524,0.707
	c-0.151,0.197-0.326,0.395-0.523,0.592c-0.197,0.197-0.395,0.357-0.595,0.478c-0.484,0.273-0.969,0.421-1.455,0.444
	c-0.484,0.022-0.91,0.034-1.276,0.034c-1.472,0-2.707-0.532-3.711-1.594c-1.018-1.093-1.528-2.422-1.528-3.985
	c0-1.609,0.503-2.938,1.506-3.985c1-1.063,2.241-1.595,3.711-1.595c1.472,0,2.712,0.529,3.713,1.589
	c1.016,1.09,1.524,2.416,1.524,3.975v5.2C-253.752,247.915-254.244,249.202-255.229,250.141z M-254.593,241.107
	c0-1.272-0.404-2.378-1.207-3.317c-0.867-0.969-1.921-1.454-3.167-1.454c-1.154,0-2.162,0.456-3.029,1.363
	c-0.879,0.954-1.316,2.09-1.316,3.408c0,1.333,0.438,2.462,1.316,3.386c0.882,0.908,1.886,1.363,3.007,1.363
	c0.351,0,0.743-0.004,1.185-0.012c0.442-0.007,0.873-0.125,1.299-0.352c0.271-0.152,0.525-0.363,0.751-0.637
	c0.229-0.273,0.426-0.545,0.591-0.818c0.167-0.273,0.35-0.613,0.547-1.022L-254.593,241.107z"/>
<path stroke="#000000" stroke-width="0.5896" stroke-miterlimit="10" d="M-315.358,280.771c-2.035,2.16-4.551,3.242-7.544,3.242
	c-2.992,0-5.508-1.082-7.548-3.242c-2.065-2.221-3.098-4.922-3.098-8.098c0-3.272,1.018-5.973,3.056-8.102
	c2.035-2.16,4.551-3.239,7.546-3.239c0.769,0,1.465,0.076,2.08,0.229c0.616,0.156,1.313,0.385,2.082,0.695
	c0.525,0.217,1.066,0.502,1.622,0.857c0.554,0.354,1.065,0.709,1.529,1.064c0.46,0.353,0.985,0.794,1.571,1.318v-14.165h1.759v21.34
	C-312.303,275.942-313.322,278.645-315.358,280.771z M-314.015,267.848c-0.647-0.678-1.222-1.239-1.716-1.686
	c-0.493-0.447-1.049-0.893-1.663-1.34c-0.619-0.447-1.222-0.793-1.806-1.039c-0.71-0.277-1.325-0.477-1.854-0.598
	c-0.523-0.126-1.14-0.187-1.849-0.187c-2.345,0-4.396,0.925-6.155,2.771c-1.791,1.938-2.685,4.246-2.685,6.926
	c0,2.708,0.894,5.004,2.685,6.881c1.789,1.848,3.825,2.771,6.111,2.771c2.589,0,4.718-0.952,6.383-2.862
	c1.67-1.879,2.502-4.14,2.502-6.789L-314.015,267.848z"/>
<path stroke="#000000" stroke-width="0.5896" stroke-miterlimit="10" d="M-289.438,280.634c-2.131,2.255-4.736,3.38-7.824,3.38
	c-3.114,0-5.738-1.098-7.868-3.287c-2.129-2.222-3.193-4.906-3.193-8.053c0-3.117,1.064-5.786,3.193-8.008
	c2.13-2.225,4.737-3.333,7.823-3.333c3.116,0,5.738,1.108,7.869,3.333c2.16,2.252,3.239,4.921,3.239,8.008
	C-286.198,275.729-287.277,278.382-289.438,280.634z M-288.051,272.695c0-2.586-0.878-4.848-2.639-6.787
	c-1.759-1.941-3.946-2.909-6.572-2.909c-2.62,0-4.813,0.954-6.571,2.864c-1.791,1.97-2.685,4.246-2.685,6.832
	c0,2.558,0.879,4.804,2.64,6.742c1.757,1.939,3.947,2.909,6.571,2.909c2.652,0,4.845-0.952,6.573-2.862
	c1.761-1.879,2.64-4.14,2.64-6.789H-288.051z"/>
<path stroke="#000000" stroke-width="0.5896" stroke-miterlimit="10" d="M-282.125,292.252c-1.358,1.111-2.993,1.667-4.906,1.667
	h-1.016v-1.667h1.016c1.482,0,2.718-0.432,3.703-1.296c1.203-1.019,1.808-2.452,1.808-4.305v-25.042h1.852v25.504
	C-279.669,289.305-280.486,291.018-282.125,292.252z M-279.626,256.52c-0.274,0.277-0.614,0.416-1.016,0.416
	s-0.725-0.122-0.971-0.372c-0.281-0.276-0.417-0.615-0.417-1.018c0-0.37,0.122-0.679,0.366-0.925
	c0.282-0.277,0.62-0.416,1.021-0.416c0.338,0,0.662,0.121,0.973,0.368c0.275,0.249,0.416,0.573,0.416,0.973
	C-279.253,255.948-279.377,256.271-279.626,256.52z"/>
<path stroke="#000000" stroke-width="0.5896" stroke-miterlimit="10" d="M-256.251,280.634c-2.13,2.255-4.739,3.38-7.821,3.38
	c-3.12,0-5.742-1.098-7.869-3.287c-2.131-2.222-3.194-4.906-3.194-8.053c0-3.117,1.063-5.786,3.194-8.008
	c2.127-2.225,4.732-3.333,7.82-3.333c3.119,0,5.74,1.108,7.87,3.333c2.161,2.252,3.238,4.921,3.238,8.008
	C-253.013,275.729-254.09,278.382-256.251,280.634z M-254.863,272.695c0-2.586-0.877-4.848-2.638-6.787
	c-1.759-1.941-3.951-2.909-6.571-2.909c-2.626,0-4.813,0.954-6.572,2.864c-1.792,1.97-2.688,4.246-2.688,6.832
	c0,2.558,0.88,4.804,2.641,6.742c1.757,1.939,3.946,2.909,6.57,2.909c2.654,0,4.845-0.952,6.573-2.862
	c1.763-1.879,2.642-4.14,2.642-6.789H-254.863z"/>
<linearGradient id="SVGID_41_" gradientUnits="userSpaceOnUse" x1="-386.7354" y1="238.7241" x2="-348.21" y2="238.7241">
	<stop  offset="0" style="stop-color:#3692CC"/>
	<stop  offset="1" style="stop-color:#74B9D7"/>
</linearGradient>
<polygon fill="url(#SVGID_41_)" points="-386.735,246.573 -348.21,222.554 -348.21,238.842 -372.822,254.895 "/>
<linearGradient id="SVGID_42_" gradientUnits="userSpaceOnUse" x1="-725.5898" y1="4.1152" x2="-687.0674" y2="4.1152" gradientTransform="matrix(-1 0 0 -1 -1059.4395 258.7979)">
	<stop  offset="0" style="stop-color:#3692CC"/>
	<stop  offset="1" style="stop-color:#74B9D7"/>
</linearGradient>
<polygon fill="url(#SVGID_42_)" points="-333.85,246.833 -372.372,270.854 -372.372,254.564 -347.761,238.512 "/>
<linearGradient id="SVGID_43_" gradientUnits="userSpaceOnUse" x1="-725.5898" y1="30.9287" x2="-658.9853" y2="30.9287" gradientTransform="matrix(-1 0 0 -1 -1059.4395 258.7979)">
	<stop  offset="0" style="stop-color:#74B9D7"/>
	<stop  offset="1" style="stop-color:#3692CC"/>
</linearGradient>
<polygon fill="url(#SVGID_43_)" points="-372.372,225.671 -372.372,208.905 -333.85,230.902 -333.85,246.833 "/>
<linearGradient id="SVGID_44_" gradientUnits="userSpaceOnUse" x1="-386.7354" y1="265.5366" x2="-320.1257" y2="265.5366">
	<stop  offset="0" style="stop-color:#74B9D7"/>
	<stop  offset="1" style="stop-color:#3692CC"/>
</linearGradient>
<polygon fill="url(#SVGID_44_)" points="-348.21,267.736 -348.21,284.5 -386.735,262.504 -386.735,246.573 "/>
</svg>
